<svg fill="none" height="144" viewBox="0 0 255 144" width="255" xmlns="http://www.w3.org/2000/svg" xmlns:xlink="http://www.w3.org/1999/xlink"><clipPath id="a"><path d="m87.5913 58.2378h46.5399v80.0686h-46.5399z"/></clipPath><clipPath id="b"><path d="m86.4465 120.481h6.73919v18.115h-6.73919z"/></clipPath><clipPath id="c"><path d="m74.9897 126.743h9.2103v11.4058h-9.2103z"/></clipPath><clipPath id="d"><path d="m24.2124 21.6638h133.805v117.239h-133.805z"/></clipPath><clipPath id="e"><path d="m177.678 11.1213h10.5105v14.0141h-10.5105z"/></clipPath><clipPath id="f"><path d="m208.542 80.002h15.2756v58.5945h-15.2756z"/></clipPath><clipPath id="g"><path d="m0 0h17.9592v25.9527h-17.9592z" transform="matrix(.994425 -.105449 .107115 .994247 211.408 112.798)"/></clipPath><clipPath id="h"><path d="m0 0h6.96388v6.93294h-6.96388z" transform="matrix(-1 0 0 1 236.51 107.734)"/></clipPath><clipPath id="i"><path d="m0 0h13.0292v22.3643h-13.0292z" transform="matrix(-1 0 0 1 170.158 115.9)"/></clipPath><clipPath id="j"><path d="m0 0h4.93298v17.4515h-4.93298z" transform="matrix(.984147 -.177359 .179705 .983721 141.451 121.728)"/></clipPath><clipPath id="k"><path d="m0 0h10.0954v29.53h-10.0954z" transform="matrix(.991589 .129431 -.131321 .99134 176.707 107.923)"/></clipPath><clipPath id="l"><path d="m0 0h10.3216v17.2309h-10.3216z" transform="matrix(.985751 .168217 -.170627 .985336 186.084 120.629)"/></clipPath><clipPath id="m"><path d="m0 0h4.49283v10.7349h-4.49283z" transform="matrix(-1 0 0 1 175.324 127.307)"/></clipPath><clipPath id="n"><path d="m0 0h5.3806v5.37823h-5.3806z" transform="matrix(.885712 -.464237 .468056 .8837 193.249 117.342)"/></clipPath><clipPath id="o"><path d="m198.071 129.691h8.98566v8.27479h-8.98566z"/></clipPath><g clip-path="url(#a)"><path d="m93.7001 138.557c-.0587 0-.1167-.014-.1694-.039-.0526-.026-.0987-.064-.1345-.11-.0357-.046-.0604-.1-.0719-.158-.0115-.057-.0096-.116.0055-.173l11.9082-44.5636c.013-.0484.035-.0937.066-.1335.03-.0398.068-.0732.112-.0983.043-.0251.091-.0414.141-.048s.101-.0034.149.0094c.049.0129.094.0352.134.0655.04.0304.074.0684.099.1117s.042.0911.048.1407c.007.0496.004.1-.009.1484l-11.9082 44.5637c-.0217.082-.0697.153-.1365.205-.0669.051-.1489.079-.2332.079zm37.1839 0c-.092-.001-.18-.033-.249-.093-.07-.059-.115-.141-.129-.231l-6.821-44.5644c-.014-.0992.012-.2.072-.2803.061-.0804.15-.1339.25-.149.099-.0151.201.0094.282.0683.082.0589.137.1473.153.2462l6.821 44.5642c.008.054.005.11-.011.163-.015.052-.041.101-.077.143s-.081.075-.131.098-.105.035-.16.035z" fill="#0f1928"/><path d="m103.71 93.6113s6.162-28.9014 6.303-29.6751c.44-2.4224 1.362-4.7378 3.831-5.2258.307-.0609.62-.0915.934-.0915h13.997c.314 0 .626.0306.934.0915 2.598.5136 4.286 3.0266 4.01 5.5967l-5.912 29.5346" fill="#fff"/><g fill="#0f1928"><path d="m127.808 94.2228c-.057.0001-.113-.0124-.164-.0364-.052-.0241-.097-.0592-.133-.1028s-.062-.0945-.075-.1493c-.014-.0547-.015-.1117-.004-.1671l5.908-29.5173c.254-2.4371-1.371-4.7042-3.705-5.1656-.283-.056-.571-.0842-.86-.0842h-13.997c-.288 0-.577.0283-.86.0841-1.864.3685-2.985 1.9318-3.529 4.9197-.14.7706-6.052 28.5061-6.304 29.6865-.022.0979-.082.1832-.167.2373-.085.0542-.187.0729-.286.0521s-.185-.0795-.24-.1633c-.056-.0838-.076-.1859-.056-.2843.062-.2889 6.162-28.9046 6.3-29.664.382-2.0993 1.225-4.9568 4.133-5.5317.333-.0655.67-.0986 1.009-.0987h13.997c.338 0 .677.0332 1.009.0987 2.725.5387 4.62 3.1791 4.315 6.0112-.001.0113-.002.0226-.005.0339l-5.911 29.5345c-.018.0864-.064.1642-.133.2201-.068.0559-.154.0865-.242.0866z"/><path d="m89.4609 93.2301 38.7461-.0038v.5082c0 .9879-.804 1.7888-1.797 1.7888h-38.8187z"/></g></g><g clip-path="url(#b)"><path d="m93.0575 150.002c-.0852 0-.1676-.031-.2317-.087s-.1057-.134-.1169-.219l-3.4585-26.011c-.0123-.093.0126-.187.0694-.261.0567-.075.1406-.123.2332-.136.0926-.012.1863.013.2605.07s.1228.141.1352.233l3.4584 26.012c.0067.05.0026.101-.012.149-.0145.048-.0392.092-.0723.13s-.0739.068-.1196.089c-.0458.021-.0955.031-.1457.031z" fill="#0f1928"/><path d="m89.5998 126.795c1.7415 0 3.1532-1.414 3.1532-3.157s-1.4117-3.157-3.1532-3.157-3.1533 1.414-3.1533 3.157 1.4118 3.157 3.1533 3.157z" fill="#b3e0d1"/></g><g clip-path="url(#c)"><path d="m82.0947 130.556c.9763 0 1.7677-.779 1.7677-1.74s-.7914-1.74-1.7677-1.74-1.7678.779-1.7678 1.74.7915 1.74 1.7678 1.74z" fill="#fff"/><path d="m82.0945 130.889c-.4164 0-.8235-.122-1.1697-.349-.3463-.228-.6161-.552-.7755-.931-.1594-.378-.2011-.795-.1198-1.197.0812-.402.2817-.772.5762-1.061.2945-.29.6696-.488 1.0781-.568.4084-.08.8318-.039 1.2165.118s.7136.423.9449.764c.2314.34.3549.741.3549 1.151-.0006.55-.2227 1.077-.6174 1.465-.3947.389-.9299.607-1.4882.608zm0-3.481c-.2828 0-.5592.083-.7944.238-.2352.154-.4184.374-.5267.631-.1082.258-.1365.541-.0813.814.0551.273.1913.524.3913.721.2.196.4548.331.7322.385s.5649.026.8262-.08c.2613-.107.4846-.287.6417-.519.1571-.231.241-.503.241-.782-.0004-.373-.1512-.731-.4193-.995s-.6315-.412-1.0107-.413z" fill="#0f1928"/><path d="m76.7238 132.275c.7711 0 1.3962-.616 1.3962-1.375s-.6251-1.374-1.3962-1.374-1.3962.615-1.3962 1.374.6251 1.375 1.3962 1.375z" fill="#fff"/><g fill="#0f1928"><path d="m76.7237 132.607c-.3429 0-.6782-.1-.9633-.288-.2852-.187-.5074-.454-.6387-.766-.1312-.312-.1655-.655-.0986-.986s.232-.635.4745-.874.5515-.401.8878-.467c.3364-.066.685-.032 1.0019.097.3168.129.5876.348.7782.629.1905.28.2922.61.2922.948-.0006.453-.1834.886-.5085 1.206-.325.32-.7658.5-1.2255.501zm0-2.749c-.2093 0-.4139.061-.588.176-.1741.114-.3097.277-.3898.467-.0801.191-.1011.4-.0602.602.0408.202.1416.388.2896.534.148.145.3366.245.5419.285s.4181.019.6115-.059c.1934-.079.3587-.213.475-.384s.1784-.373.1784-.579c-.0003-.276-.1119-.541-.3103-.736-.1985-.196-.4675-.306-.7481-.306zm2.7586 8.291c-.0523 0-.1039-.012-.1507-.035-.0469-.023-.0876-.056-.1191-.097s-.0529-.089-.0625-.14c-.0095-.05-.007-.102.0074-.152l2.6122-9c.0118-.043.0321-.082.0596-.117.0275-.034.0617-.063.1006-.085.0389-.021.0817-.035.126-.04.0444-.005.0892-.002.1321.011.0429.012.083.032.1178.059.0349.028.0639.062.0854.1s.0351.081.0399.124c.0048.044.0008.088-.0119.13l-2.6122 9.001c-.0201.069-.0627.13-.1213.174-.0585.044-.1299.067-.2033.067z"/><path d="m79.4825 138.149c-.0679 0-.1341-.02-.1902-.057-.0561-.038-.0993-.091-.1242-.153l-2.7586-6.917c-.0328-.082-.0312-.174.0045-.255s.1026-.144.186-.176c.0834-.033.1764-.031.2586.004s.1468.101.1796.183l2.7586 6.917c.0202.05.0276.105.0215.159-.0061.053-.0255.105-.0565.15s-.0726.081-.1213.107c-.0487.025-.103.038-.158.038z"/></g></g><g clip-path="url(#d)"><path d="m111.036 38.7853c1.642 0 2.973-1.3344 2.973-2.9804 0-1.6461-1.331-2.9804-2.973-2.9804s-2.974 1.3343-2.974 2.9804c0 1.646 1.332 2.9804 2.974 2.9804z" fill="#fff"/><path d="m111.036 39.1502c-.66 0-1.306-.1962-1.854-.5638-.549-.3676-.977-.8901-1.229-1.5014-.253-.6112-.319-1.2839-.19-1.9328.128-.649.446-1.245.913-1.7129s1.061-.7865 1.709-.9155c.647-.1291 1.318-.0629 1.928.1903.609.2532 1.131.682 1.497 1.2322.367.5501.563 1.1969.563 1.8585-.001.887-.353 1.7373-.979 2.3644-.625.6272-1.474.98-2.358.981zm0-5.9608c-.516 0-1.021.1534-1.45.4408-.429.2873-.763.6958-.961 1.1737-.197.4779-.249 1.0038-.148 1.5112.1.5073.349.9734.714 1.3391.365.3658.83.6149 1.336.7158.506.101 1.03.0492 1.507-.1488s.884-.5332 1.171-.9633.44-.9358.44-1.4531c-.001-.6934-.276-1.3582-.765-1.8485-.49-.4903-1.153-.7661-1.844-.7669z" fill="#0f1928"/><path clip-rule="evenodd" d="m49.6051 113.991c-2.1762 1.936-7.9697 4.57-10.9262 3.835-3.6311-.892-6.5892-1.885-6.5892-1.885-1.2875-.614-2.751-.748-4.1279-.377-1.377.37-2.5772 1.22-3.3854 2.397l15.8175 13.095 6.9398-.694-3.211 3.811 4.8125 3.994 11.7128-13.349" fill="#fff" fill-rule="evenodd"/><path d="m48.9351 138.532c-.0847 0-.1668-.029-.232-.084l-4.8125-3.993c-.0371-.031-.0677-.069-.0901-.111-.0224-.043-.0361-.09-.0404-.138s.001-.096.0155-.142.0379-.089.069-.126l2.6313-3.123-6.0458.604c-.0479.005-.0961 0-.1421-.014s-.0888-.037-.1259-.067l-15.8174-13.095c-.0703-.059-.1163-.141-.1288-.232-.0126-.09.0092-.182.0611-.257.8526-1.249 2.1215-2.151 3.5786-2.546 1.4571-.394 3.0068-.255 4.3705.393.2677.089 3.1217 1.03 6.5395 1.87 2.7537.685 8.3819-1.782 10.598-3.753.0357-.033.0774-.057.1227-.073s.0932-.023.1412-.02c.0479.002.0948.015.138.035.0433.021.0819.051.1138.087.0318.036.0563.078.0719.123.0156.046.0221.094.0191.142s-.0155.095-.0367.138-.0507.082-.0868.114c-2.3201 2.064-8.1989 4.675-11.2554 3.916-3.6032-.885-6.587-1.883-6.6166-1.893-.014-.004-.0276-.01-.0409-.016-1.1569-.556-2.4687-.697-3.7169-.401-1.2482.297-2.3575 1.013-3.143 2.029l15.4357 12.779 6.7887-.679c.0722-.007.1448.007.2086.041.0639.035.116.088.1498.152.0337.064.0476.137.0397.209-.0078.073-.037.141-.0838.196l-2.973 3.53 4.257 3.533 11.4779-13.083c.0638-.073.1537-.117.2501-.123.0964-.007.1912.026.2637.09.0726.064.1168.154.1229.25.0062.097-.0261.192-.0899.265l-11.7128 13.349c-.0342.039-.0763.07-.1234.092-.0472.021-.0984.032-.1501.032z" fill="#0f1928"/><path clip-rule="evenodd" d="m96.3279 126.76c-.7424 2.375-2.0703 4.434-4.0674 5.138-3.5969 1.261-4.6477 3.519-4.4382 6.419h17.6917l3.762-5.961v5.961h5.461v-11.557z" fill="#fff" fill-rule="evenodd"/><path d="m114.737 138.682h-5.461c-.097 0-.189-.038-.257-.106-.069-.069-.107-.162-.107-.258v-4.702l-3.09 4.897c-.033.052-.078.095-.132.125-.054.029-.114.045-.176.045h-17.6915c-.092 0-.1806-.035-.248-.098-.0673-.063-.1085-.149-.1151-.241-.2469-3.426 1.2406-5.583 4.6812-6.79 1.6722-.589 3.0362-2.33 3.8403-4.902.0233-.074.0695-.139.1319-.185.0625-.046.138-.071.2154-.071h18.4088c.097 0 .189.039.257.107.069.069.107.162.107.258v11.557c0 .097-.039.19-.107.258s-.161.107-.257.106zm-5.097-.729h4.733v-10.827h-17.78c-.8858 2.657-2.375 4.469-4.2108 5.117-3.0088 1.054-4.3201 2.823-4.2145 5.71h17.1463l3.655-5.791c.042-.067.105-.118.179-.146.073-.028.154-.031.23-.009s.142.068.19.131c.047.063.073.14.073.219z" fill="#0f1928"/><path clip-rule="evenodd" d="m57.6368 69.6922c-3.1821-2.5303-4.8756-4.5726-5.0806-6.1268-.3448-2.6093-.1865-4.5352-3.9052-6.3407-1.6777-.8101-4.3079-1.7639-3.4797-3.341.5766-1.0826 3.7022-.0883 6.0287.5619-2.6436-2.265-6.116-5.2333-5.163-6.4913.9529-1.258 3.6732.6582 7.0825 3.6153-3.1736-3.8998-5.3848-5.5257-4.3279-6.6339 1.0922-1.1425 4.1448 1.2677 6.7559 4.1497.4387-.178.852.0409 1.2398.6569 1.1012 1.747 2.9214 5.0721 5.4608 9.9752" fill="#fff" fill-rule="evenodd"/><path d="m57.6366 70.057c-.0821.0002-.1617-.0277-.2259-.0789-3.2895-2.6155-4.9955-4.6977-5.2153-6.3647-.0342-.2583-.0635-.51-.0919-.7554-.2541-2.1852-.4375-3.764-3.6111-5.3048-.195-.0942-.4039-.1906-.6189-.2899-1.3105-.6053-2.7949-1.2914-3.1463-2.33-.0664-.2004-.0899-.4126-.0688-.6228.021-.2101.0861-.4135.1909-.5967.5815-1.0926 2.6564-.6691 4.8696-.0634-2.5875-2.2567-4.9729-4.5955-3.9718-5.9167.1118-.1505.2543-.2754.418-.3664.1638-.0909.3449-.1458.5315-.1611.8026-.084 1.8957.3856 3.5204 1.5539-.7625-.8612-1.3633-1.5595-1.7071-2.141-.1727-.2928-.6986-1.1833.0187-1.9353.1324-.1358.292-.2418.4683-.3112.1763-.0693.3653-.1004.5544-.0912 1.8752.0251 4.7947 2.956 6.1142 4.3927.4068-.0692.9268.0747 1.4298.8729 1.1015 1.7478 2.9438 5.113 5.476 10.002.0445.0859.0531.186.024.2783-.0291.0922-.0936.1691-.1793.2137s-.1856.0533-.2776.0241c-.0921-.0292-.1688-.0939-.2133-.1798-2.5229-4.8708-4.3549-8.2179-5.4454-9.9485-.4193-.6653-.6928-.5549-.7954-.5128-.069.028-.145.0341-.2176.0174-.0727-.0166-.1385-.0552-.1885-.1105-2.3642-2.6091-4.6158-4.3047-5.7367-4.3198-.0892-.0081-.1791.0036-.2633.0343-.0841.0307-.1605.0796-.2237.1432-.514.5387.2409 1.4361 1.9972 3.4142.6925.7801 1.4775 1.6642 2.3499 2.7363.0575.0708.0865.1606.0812.2517s-.0445.1769-.1098.2405-.152.1004-.243.1031c-.091.0026-.1797-.029-.2486-.0886-2.0108-1.7441-4.8318-4.0468-6.1092-3.9135-.0875.0056-.1726.0302-.2496.0723-.0769.042-.1437.1004-.1958.171-.1654.219-.2293.8194 1.2014 2.3898 1.0578 1.1612 2.5586 2.4469 3.8832 3.5812l.0258.0223c.063.054.1057.1279.1211.2096.0154.0816.0026.1661-.0364.2394s-.1017.1311-.1779.1638c-.0762.0328-.1613.0384-.2411.0161-.1871-.0523-.3793-.1068-.5751-.1622-1.7362-.4924-4.6426-1.3162-5.0348-.5795-.058.0955-.0948.2024-.1079.3134s-.0022.2235.032.3299c.251.7415 1.6432 1.3848 2.7618 1.9015.2184.1011.4314.1994.631.2956 3.5338 1.7153 3.7581 3.6444 4.0176 5.8774.0282.242.0569.4899.0905.7442.1912 1.4499 1.8552 3.4306 4.946 5.8887.0592.0471.1023.1115.1234.1843.021.0728.0189.1503-.006.2218-.0249.0716-.0714.1336-.133.1774-.0616.0439-.1354.0674-.2109.0673z" fill="#0f1928"/><path d="m63.1983 61.6612c-.059.0001-.1171-.0141-.1693-.0415s-.097-.0672-.1305-.1158c-.0257-.0373-.1884-.2694-.351-.5015-.164-.2341-.3277-.4683-.354-.5057-.0144-.0205-.0266-.0425-.0364-.0655-.6481-1.5352-1.4362-2.9887-2.1984-4.3942-.3364-.6204-.6844-1.2621-1.0164-1.9036-.2484-.4717-.527-.9269-.8342-1.3624-.0269-.0396-.0458-.0842-.0555-.1311-.0098-.0469-.0102-.0953-.0013-.1424s.027-.092.0532-.1321.06-.0746.0995-.1016.0839-.0459.1307-.0557c.0469-.0098.0951-.0102.1421-.0013s.0917.0271.1317.0533c.04.0263.0745.0602.1014.0998.3245.4607.6187.9422.8809 1.4412.3265.6311.6729 1.2696 1.0072 1.8871.7645 1.4103 1.5552 2.8682 2.2142 4.4231l.33.4714c.1641.2339.3276.4681.354.5057.0378.0547.0599.1187.064.1852.004.0664-.0101.1327-.0408.1916-.0308.059-.0771.1084-.1339.1429-.0567.0345-.1218.0528-.1882.0529z" fill="#0f1928"/><path clip-rule="evenodd" d="m58.4034 61.4612c-1.3091-1.6582-1.2972-4.0092-2.0055-6.3136-.985-3.1742-1.3228-5.304-.7834-5.8757.7767-.8205 1.8714 1.2932 3.0588 3.6251.4733.9296 1.6868 3.1598 3.6405 6.6908" fill="#fff" fill-rule="evenodd"/><path d="m58.4037 61.826c-.055.0001-.1093-.0123-.1588-.0362-.0495-.024-.0929-.059-.127-.1022-.927-1.1744-1.2215-2.6329-1.5332-4.1769-.1495-.7403-.3034-1.5057-.5348-2.2562-1.46-4.7055-1.0985-5.8113-.6996-6.2334.0919-.1071.2091-.1894.3409-.2393s.274-.0659.4135-.0465c.8641.1252 1.6693 1.5929 2.8928 3.9953.4698.9225 1.6928 3.1697 3.6346 6.6797.0463.0846.0572.1841.0305.2768s-.089.171-.1732.2178c-.0841.0467-.1833.0582-.2759.0319-.0926-.0264-.171-.0884-.2181-.1725-1.946-3.5171-3.1727-5.7719-3.6463-6.7018-.7149-1.4036-1.795-3.5245-2.3485-3.6048-.0182-.0029-.0527-.0076-.1214.0654-.1488.1582-.5275 1.0219.8667 5.5155.223.766.4075 1.5427.5528 2.3273.294 1.456.5717 2.8313 1.3906 3.8684.0425.0538.0689.1184.0764.1865.0074.0682-.0044.137-.0341.1987-.0298.0617-.0763.1138-.1342.1503-.0579.0364-.1249.0558-.1932.0558z" fill="#0f1928"/><path clip-rule="evenodd" d="m148.416 47.917c3.182-2.5303 4.876-4.5725 5.081-6.1267.345-2.6094 1.881-4.2487 3.905-6.3407.657-.6787.071-3.3969-2.256-2.7468 2.235-2.1572-.971-4.2577-2.213-2.9084 3.174-3.8998 5.385-5.5256 4.328-6.6339-1.092-1.1425-4.145 1.2678-6.756 4.1497-.438-.1779-.852.0411-1.24.657-1.101 1.7469-2.921 5.072-5.46 9.9752" fill="#fff" fill-rule="evenodd"/><path d="m148.416 48.2818c-.075 0-.149-.0235-.211-.0674-.061-.0439-.108-.1059-.133-.1774s-.027-.149-.006-.2218.065-.1372.124-.1842c3.091-2.4574 4.755-4.439 4.946-5.8886.368-2.7891 2.053-4.5306 4.004-6.5471.198-.2041.235-.939-.118-1.5353-.256-.4316-.772-.8868-1.778-.6057-.079.0219-.162.017-.237-.0139s-.137-.0859-.177-.1565c-.041-.0705-.056-.1525-.045-.233.012-.0804.05-.1547.108-.211.542-.5231.757-1.0675.621-1.5743s-.619-.9431-1.201-1.0869c-.213-.0525-.748-.1323-1.112.2631-.065.0696-.153.1114-.248.1167-.094.0052-.187-.0267-.258-.0888-.072-.0622-.116-.1498-.124-.2442-.009-.0945.02-.1884.08-.2619.872-1.072 1.657-1.9561 2.35-2.736 1.756-1.9784 2.511-2.8758 1.997-3.4148-.063-.0636-.14-.1124-.224-.1431-.084-.0306-.174-.0422-.263-.0341-1.121.0151-3.372 1.7107-5.736 4.3198-.051.0553-.116.0939-.189.1105-.073.0167-.149.0106-.218-.0174-.102-.0419-.376-.1531-.795.5128-1.091 1.7306-2.923 5.0777-5.445 9.9485-.045.0859-.122.1506-.214.1798s-.192.0205-.277-.0241c-.086-.0446-.15-.1215-.18-.2138-.029-.0922-.02-.1923.024-.2782 2.532-4.889 4.375-8.2542 5.476-10.002.503-.7981 1.023-.9417 1.43-.8729 1.32-1.4368 4.239-4.3672 6.114-4.3927.189-.0096.379.0212.555.0906.176.0693.336.1755.468.3114.717.7524.191 1.643.019 1.9357-.387.654-1.098 1.4549-1.998 2.4695-.455.5109-.949 1.0683-1.481 1.6927.143.0083.284.0298.423.0644.845.2086 1.524.8394 1.73 1.6064.067.2641.079.5389.038.8081-.042.2691-.137.5271-.281.7586.345.0177.679.1229.971.3055.293.1826.534.4368.702.7386.485.8174.492 1.924.015 2.4164-1.861 1.9236-3.468 3.5849-3.805 6.1347-.22 1.6666-1.926 3.7486-5.216 6.3646-.064.051-.143.0787-.225.0787z" fill="#0f1928"/><path d="m142.855 39.8858c-.067-.0001-.132-.0184-.189-.0529-.056-.0345-.103-.084-.133-.143-.031-.059-.045-.1254-.041-.1918.004-.0665.026-.1305.064-.1852.025-.0365.177-.2525.334-.4764.144-.206.293-.4184.35-.5004.659-1.5548 1.449-3.0126 2.214-4.4229.335-.6175.681-1.2561 1.01-1.8914.262-.4976.555-.9776.879-1.437.054-.08.138-.1351.233-.1531s.193.0025.273.057c.079.0545.134.1385.152.2336s-.002.1935-.056.2735c-.307.4343-.585.8879-.833 1.3581-.334.6456-.682 1.2873-1.018 1.9078-.762 1.4056-1.551 2.8588-2.198 4.3941-.01.023-.022.045-.037.0655-.027.0392-.204.2919-.374.5352-.156.2223-.306.4372-.331.473-.034.0483-.079.0877-.131.115-.052.0272-.109.0414-.168.0413z" fill="#0f1928"/><path clip-rule="evenodd" d="m148.472 37.2038c.849-1.3382.84-2.7151 1.183-3.832.985-3.1742 1.323-5.3039.783-5.8751-.776-.8205-1.745 1.1388-3.179 3.3819-.597.9345-1.77 3.3269-3.519 7.1773" fill="#fff" fill-rule="evenodd"/><path d="m143.739 38.4206c-.061-.0001-.121-.0154-.174-.0447-.054-.0293-.099-.0715-.132-.1229s-.053-.1102-.057-.1711c-.004-.061.007-.122.032-.1776 1.772-3.9029 2.932-6.2656 3.543-7.2231.227-.3547.441-.7005.648-1.0348.978-1.5805 1.624-2.6245 2.369-2.7007.137-.0121.275.0088.403.061s.241.1342.331.2392c.399.4224.76 1.5281-.7 6.2345-.102.3598-.185.7249-.249 1.0935-.168.8691-.358 1.8542-.975 2.826-.051.0817-.134.1394-.228.1604s-.193.0037-.274-.0483c-.082-.0519-.139-.1342-.16-.2287-.021-.0944-.004-.1934.048-.2751.543-.8549.711-1.7283.874-2.5729.068-.3948.158-.7856.268-1.1708 1.395-4.4941 1.016-5.3587.867-5.5166-.077-.0816-.116-.0776-.132-.076-.388.0398-1.151 1.2721-1.824 2.3594-.208.3366-.424.6847-.653 1.044-.585.915-1.761 3.3143-3.495 7.1315-.028.0636-.075.1176-.134.1555-.058.0379-.126.0581-.196.0583z" fill="#0f1928"/><path clip-rule="evenodd" d="m155.146 32.7028c-1.78 3.244-3.155 4.5821-4.126 4.0144-.97-.5676-.566-2.3113 1.214-5.2309" fill="#fff" fill-rule="evenodd"/><path d="m151.479 37.2095c-.226 0-.448-.0612-.642-.1772-.16-.0921-.299-.2163-.409-.365-.11-.1486-.188-.3184-.229-.4987-.245-.9732.319-2.5668 1.724-4.8721.025-.0419.057-.0784.096-.1074.039-.0291.083-.0501.13-.0619s.095-.0141.143-.0068.094.0241.135.0493c.041.0253.077.0586.105.0979.029.0393.049.0839.06.1311s.012.0961.004.1439-.026.0935-.052.1344c-1.594 2.6154-1.771 3.7889-1.639 4.3132.018.086.054.1672.105.2382.052.0711.118.1303.194.1739.069.0409.147.0665.227.0751.08.0085.161-.0001.238-.0254.541-.15 1.528-.9527 3.158-3.9246.023-.0429.054-.0809.091-.1117s.08-.0539.127-.0678c.046-.014.095-.0185.143-.0134s.094.0197.137.0431c.042.0234.079.0549.11.0929.03.038.052.0816.065.1283.013.0466.017.0955.011.1436s-.022.0945-.046.1366c-1.427 2.6011-2.605 3.9999-3.602 4.2766-.125.0352-.254.0533-.384.0539z" fill="#0f1928"/><path clip-rule="evenodd" d="m157.485 35.2838c-1.906 3.0196-3.205 4.1738-4.072 3.759s-.289-2.4877 1.733-6.2183" fill="#fff" fill-rule="evenodd"/><path d="m153.777 39.4923c-.18-.0001-.358-.0412-.521-.1202-.124-.0608-.235-.1471-.325-.2533s-.157-.23-.196-.3636c-.196-.6035-.192-1.8932 2.092-6.1051.022-.0425.053-.0801.09-.1107.038-.0305.08-.0533.126-.0672.047-.0139.095-.0184.143-.0135.047.005.094.0194.136.0424s.08.0542.11.0917c.03.0376.052.0807.066.127.013.0463.017.0947.012.1426s-.02.0942-.044.1364c-2.086 3.8487-2.173 5.1174-2.039 5.5311.009.0394.026.0763.051.108.025.0318.056.0576.092.0756.378.1809 1.35-.0487 3.608-3.6251.025-.0405.059-.0756.098-.1032s.083-.0472.13-.0577c.046-.0105.095-.0117.142-.0036.047.0082.092.0256.132.0513.041.0256.076.059.103.0981.028.0392.047.0834.058.1302.01.0468.011.0951.003.1424-.008.0472-.025.0923-.051.1328-1.727 2.7352-2.996 4.0136-4.016 4.0136z" fill="#0f1928"/><path clip-rule="evenodd" d="m126.022 71.9955-29.2449 3.2845-13.1057 7.9073-27.7891-10.9485 7.0805-14.3566 18.8673 8.7869 9.1054-12.7349c1.6398-2.2935 4.024-3.9442 6.7444-4.6695l7.5711-2.0181 9.007-1.9759c2.599-.57 5.312-.2683 7.723.8586l9.869 4.6137 8.927-14.1536 14.438 8.3734-11.404 19.6492c-1.408 2.4262-3.692 4.2176-6.38 5.004s-5.575.5079-8.064-.7781l-2.592-1.3393-2.489-1.2863-3.742-1.9334 3.537 1.8774z" fill="#fff" fill-rule="evenodd"/><path d="m83.6712 83.5522c-.0457.0001-.091-.0085-.1335-.0253l-27.789-10.9484c-.0469-.0185-.0895-.0466-.125-.0824s-.0633-.0786-.0814-.1258c-.0182-.0471-.0264-.0975-.0241-.1479.0023-.0505.015-.1.0373-.1453l7.081-14.3565c.0421-.0854.1159-.1508.2055-.1824s.188-.0268.2742.0133l18.5937 8.6595 8.9293-12.4895c1.6909-2.3605 4.146-4.0602 6.9468-4.8094l7.571-2.0183.016-.0038 9.007-1.9758c2.677-.582 5.47-.2715 7.954.8844l9.58 4.4779 8.755-13.8823c.05-.0797.129-.1368.221-.1593.091-.0225.187-.0087.269.0385l14.438 8.3735c.042.0241.078.056.107.0941s.05.0815.062.1278c.013.0463.016.0946.01.1421-.007.0475-.022.0933-.046.1348l-11.405 19.6498c-1.454 2.5082-3.814 4.3602-6.592 5.1731-2.777.8129-5.761.5243-8.332-.8059l-4.512-2.3312 1.679 5.0491c.017.0516.022.1063.015.1603-.006.0539-.025.1057-.054.1515s-.068.0845-.114.1133c-.046.0287-.098.0468-.152.0528l-29.1664 3.2753-13.0376 7.8661c-.0567.0343-.1216.0523-.1878.0523zm-27.287-11.508 27.2532 10.7376 12.952-7.8144c.0448-.0271.095-.0442.1471-.05l28.7985-3.2343-1.753-5.2726-3.408-1.8089c-.086-.0449-.15-.1219-.179-.2143-.029-.0923-.02-.1924.024-.2782.045-.0858.122-.1503.214-.1793s.192-.0201.278.0247l8.823 4.5589c2.406 1.2446 5.197 1.5146 7.795.7543 2.599-.7604 4.807-2.4929 6.167-4.8393l11.221-19.333-13.82-8.0146-8.739 13.8571c-.047.0749-.12.13-.205.155s-.176.0181-.256-.0192l-9.87-4.6137c-2.339-1.0883-4.97-1.3807-7.49-.8329l-9 1.9741-7.5637 2.0163c-2.6377.7056-4.9497 2.3062-6.542 4.5293l-9.1053 12.735c-.0494.069-.1213.1186-.2033.1402-.0819.0216-.1688.0139-.2457-.0219l-18.545-8.6371z" fill="#0f1928"/><path clip-rule="evenodd" d="m92.2838 98.0287-6.0902 1.4355-25.4877 25.3838-14.8021-14.619 28.9044-28.3508c1.5444-1.4512 3.4882-2.4036 5.5792-2.7338l14.6908-3.0128" fill="#fff" fill-rule="evenodd"/><path d="m60.7057 125.213c-.0955 0-.1871-.038-.2549-.105l-14.8027-14.619c-.0345-.034-.0618-.074-.0804-.119-.0187-.045-.0282-.093-.0281-.141 0-.049.0098-.097.0286-.142.0188-.044.0463-.085.0809-.119l28.9045-28.3507c1.5951-1.5041 3.6055-2.4912 5.7687-2.8324l14.6833-3.0109c.0472-.0105.0959-.0114.1435-.0028.0475.0087.0928.0267.1333.0531.0405.0263.0754.0605.1026.1005.0271.0401.0461.0851.0558.1325.0096.0475.0098.0964.0004.1438-.0093.0475-.0281.0927-.055.1329-.027.0401-.0616.0745-.1019.1012-.0404.0266-.0856.0449-.1331.0538l-14.6909 3.0128-.0163.0029c-2.0197.3165-3.8971 1.2366-5.3869 2.6398l-28.6338 28.0855 14.2814 14.105 25.2321-25.1293c.0477-.0476.1077-.081.1733-.0964l6.0903-1.4354c.0933-.0204.1909-.0033.2717.0478.0809.0511.1384.132.1603.2252.0218.0932.0063.1914-.0434.2732-.0496.0818-.1294.1408-.222.1642l-5.9901 1.4124-25.4146 25.3103c-.0682.068-.1605.106-.2566.106z" fill="#0f1928"/><path clip-rule="evenodd" d="m123.96 66.1562 4.75 12.9867c.529 1.446.721 2.9941.561 4.5259s-.667 3.0067-1.483 4.3118c-.816 1.305-1.918 2.4057-3.224 3.2178-1.305.812-2.779 1.3139-4.307 1.4673l-6.795.6812 2.735 33.6331-21.1588-.052-3.8819-42.5093c-.2157-2.3623.5074-4.7145 2.0123-6.5453 1.5048-1.8308 3.6697-2.9921 6.024-3.2315l23.5814-2.3977" fill="#fff" fill-rule="evenodd"/><path d="m116.197 127.346h-.001l-21.1589-.052c-.0906-.001-.1779-.035-.2448-.096s-.1085-.146-.1168-.236l-3.8817-42.5099c-.2167-2.4565.5387-4.8999 2.1031-6.803 1.5643-1.9032 3.8123-3.1136 6.2589-3.3701l23.5812-2.3977c.095-.0076.19.0223.263.0834s.119.1486.129.2435c.009.095-.018.19-.078.2646-.059.0746-.145.1229-.24.1345l-23.5817 2.3979c-2.256.2365-4.3289 1.3526-5.7713 3.1075-1.4425 1.7549-2.139 4.0079-1.9393 6.273l3.8518 42.1793 20.4315.05-2.703-33.2376c-.008-.0954.022-.19.083-.2635.061-.0734.149-.1199.244-.1294l6.794-.6813c1.474-.1478 2.894-.6316 4.152-1.4143 1.259-.7827 2.322-1.8437 3.108-3.1016s1.275-2.6795 1.429-4.156-.031-2.9687-.541-4.3624l-4.75-12.9868c-.033-.0908-.029-.1908.012-.2782s.114-.1552.205-.1884c.09-.0332.19-.0292.277.0111.088.0404.156.1137.189.2041l4.751 12.9868c.548 1.4983.746 3.1023.581 4.6895-.166 1.5871-.691 3.1153-1.536 4.4675-.846 1.3523-1.988 2.4927-3.341 3.3341-1.352.8415-2.879 1.3616-4.463 1.5205l-6.439.646 2.706 33.2759c.004.051-.003.101-.019.149-.016.047-.042.091-.077.128-.034.037-.075.067-.121.087s-.096.031-.146.031z" fill="#0f1928"/><path d="m128.998 55.8308c-.065-.0001-.128-.0173-.184-.05s-.102-.0796-.133-.136c-.032-.0563-.048-.1201-.047-.1848s.019-.1279.053-.1832l2.851-4.7229c.05-.0828.131-.1423.225-.1654s.193-.0079.275.0422c.083.0501.142.1311.165.2251s.008.1934-.042.2762l-2.851 4.7229c-.033.0537-.079.0982-.133.129-.055.0308-.117.047-.179.0469z" fill="#0f1928"/><path clip-rule="evenodd" d="m111.745 34.8439c.645.6678 1.129 1.4748 1.416 2.3592.286.8844.366 1.8226.234 2.743-.131.9203-.471 1.7982-.993 2.5666-.522.7683-1.213 1.4066-2.019 1.866l.239 3.6685c.069 1.0875-.292 2.1583-1.005 2.981s-1.72 1.3311-2.803 1.4153c-1.084.0843-2.157-.2624-2.988-.9651s-1.352-1.7049-1.452-2.7899l-.652-7.3477-1.393-8.1513v-1.9464l4.248-2.0681 4.732.4866" fill="#fff" fill-rule="evenodd"/><path d="m106.487 52.8239c-1.124.0053-2.209-.414-3.038-1.1744-.83-.7605-1.343-1.8063-1.437-2.929l-.651-7.3327-1.39-8.1368c-.0034-.0204-.0051-.041-.0052-.0617v-1.9464c0-.0685.0192-.1357.0552-.1937.036-.0581.088-.1048.15-.1348l4.247-2.068c.061-.03.129-.042.196-.0348l4.733.4866c.048.0042.095.018.137.0405.043.0225.081.0532.112.0905s.054.0804.068.1267.018.095.013.1431c-.004.0482-.019.0948-.042.1373s-.054.08-.092.1103c-.038.0302-.081.0527-.127.066-.047.0134-.095.0173-.143.0116l-4.63-.4758-3.95 1.923v1.6869l1.388 8.1208c.002.0097.003.0195.004.0293l.652 7.3476c.08.9408.51 1.817 1.205 2.4542.695.6371 1.604.9884 2.546.9839.082 0 .165-.0026.248-.0079.997-.0671 1.927-.5268 2.588-1.279.66-.7521.996-1.7355.936-2.7355l-.24-3.6688c-.004-.0683.011-.1364.043-.1966.032-.0603.081-.1101.14-.144.758-.4318 1.407-1.0317 1.898-1.7538.491-.7222.811-1.5473.935-2.4124.123-.865.048-1.747-.221-2.5783-.268-.8313-.723-1.59-1.33-2.2179-.066-.0695-.102-.1622-.1-.2581.002-.096.041-.1874.11-.2545.068-.067.16-.1044.256-.104.095.0004.187.0386.255.1063.671.6937 1.177 1.5295 1.483 2.4457s.402 1.8894.283 2.8481c-.119.9586-.452 1.8781-.973 2.6908s-1.217 1.4978-2.038 2.0049l.225 3.4451c.073 1.1931-.328 2.3667-1.115 3.2645s-1.897 1.4467-3.087 1.5269c-.1.0052-.199.0083-.297.0083z" fill="#0f1928"/><path clip-rule="evenodd" d="m100.688 34.3934c.023-.7282.189-1.4447.489-2.1085.299-.6638.727-1.2617 1.257-1.7596.531-.4978 1.154-.8857 1.835-1.1415.68-.2558 1.405-.3744 2.131-.3489.726.0254 1.44.1943 2.101.497s1.256.7333 1.751 1.267c.495.5338.879 1.1601 1.132 1.8432s.368 1.4095.341 2.1376" fill="#fff" fill-rule="evenodd"/><path d="m111.725 35.1448h-.013c-.096-.0034-.187-.045-.253-.1157s-.101-.1647-.098-.2614c.025-.6794-.084-1.3572-.32-1.9944-.237-.6372-.596-1.2214-1.058-1.7192-.462-.4977-1.018-.8992-1.635-1.1815s-1.283-.4398-1.961-.4636c-.678-.0237-1.353.0868-1.989.3253-.635.2384-1.217.6001-1.712 1.0643-.496.4643-.895 1.0219-1.175 1.641-.281.6192-.436 1.2876-.458 1.9672-.002.0479-.013.095-.033.1387-.02.0436-.048.0829-.083.1156s-.076.0582-.121.075-.092.0246-.14.0229-.095-.0128-.139-.0326c-.043-.0199-.082-.0482-.115-.0833s-.058-.0762-.075-.1211c-.016-.045-.024-.0927-.023-.1407.062-1.5591.736-3.0305 1.877-4.0921 1.14-1.0617 2.654-1.6272 4.21-1.5727 1.555.0544 3.026.7244 4.09 1.8632s1.635 2.6538 1.587 4.2134c-.003.0943-.043.1836-.111.2492-.067.0656-.158.1023-.252.1025z" fill="#0f1928"/><path d="m108.604 36.1951c-.086 0-.169-.0305-.235-.0863-.066-.0557-.11-.133-.124-.2182s.002-.1726.046-.2469c.044-.0742.113-.1304.194-.1586l1.134-.3932-1.71-2.1775c-.06-.076-.087-.1728-.076-.2689.012-.0961.061-.1837.137-.2436s.172-.0871.268-.0756c.096.0114.183.0606.243.1367l2.026 2.5809c.036.0457.061.0994.072.1565.011.0572.008.1161-.008.172-.017.0558-.046.1069-.086.1491-.04.0421-.09.074-.144.093l-1.617.5608c-.039.0132-.079.0199-.12.0198z" fill="#0f1928"/><path d="m106.51 35.086c.343-.1319.514-.517.383-.8602-.131-.3431-.516-.5144-.859-.3824-.343.1319-.514.5171-.383.8602.132.3432.516.5144.859.3824z" fill="#0f1928"/><path d="m111.095 33.7335c.343-.1319.515-.5171.383-.8602-.131-.3432-.516-.5144-.859-.3825-.343.132-.514.5171-.383.8603.132.3431.516.5144.859.3824z" fill="#0f1928"/><path d="m102.186 36.3861c.084.0417.329.0725.735.0926l-.936-4.4901 5.04-1.5701c.962.2696 1.986.2012 2.904-.1941.696-.2955 1.305-.7638 1.77-1.3607s.771-1.3028.889-2.051c.118-.7483.043-1.5143-.216-2.2258s-.695-1.345-1.266-1.8409c-.572-.4958-1.26-.8377-1.999-.9932-.74-.1556-1.507-.1198-2.228.1041-.722.2238-1.375.6283-1.898 1.1753-.523.5469-.898 1.2184-1.09 1.951-.715-.2287-1.481-.2488-2.207-.0581s-1.382.5843-1.8938 1.135c-.5113.5507-.856 1.2358-.9937 1.9754s-.0629 1.5031.2158 2.2017c-.4898.1572-2.0609 1.8491-.9238 5.8235.0672.2356.1489.4669.2446.6924.8721-.4719 2.3269-1.1261 3.8529-.367z" fill="#096"/><path clip-rule="evenodd" d="m102.511 36.1712c-.425-.4555-.969-.7828-1.57-.9447-.601-.162-1.2346-.1522-1.8302.0282s-1.1289.5243-1.5398.9927c-.4108.4684-.6827 1.0427-.7849 1.658-.1023.6152-.0308 1.2469.2063 1.8235.2372.5766.6305 1.0753 1.1356 1.4395s1.1017.5796 1.7225.6216c.6205.0421 1.2405-.0907 1.7905-.3835.218-.1144.42-.2552.604-.4191" fill="#fff" fill-rule="evenodd"/><g fill="#0f1928"><path d="m100.07 42.1678c-.3637-.0003-.7256-.0544-1.0738-.1606-.4641-.1398-.8957-.3708-1.2699-.6795-.3741-.3087-.6832-.689-.9093-1.1186-.4146-.7927-.5295-1.7089-.3237-2.5798.2059-.8709.7186-1.638 1.4439-2.16.7252-.522 1.6142-.7638 2.5028-.6809.889.083 1.719.4851 2.335 1.1323.067.0704.102.1643.099.2611-.003.0967-.044.1884-.114.2548s-.164.1021-.26.0993c-.097-.0028-.188-.044-.254-.1144-.496-.5191-1.162-.8414-1.876-.9076-.7135-.0662-1.4272.1281-2.0094.5472-.5823.4191-.9941 1.0348-1.1597 1.7339-.1656.6992-.0739 1.4347.2583 2.0715.183.3445.432.6493.7328.8971.3008.2477.6475.4335 1.02.5466.3726.1131.7638.1514 1.151.1126.388-.0387.763-.1538 1.106-.3386.192-.1006.37-.2242.532-.3681.035-.0327.077-.0581.122-.0746.046-.0165.094-.0239.142-.0216.048.0022.095.014.139.0347.043.0206.082.0498.114.0856.033.0359.057.0779.073.1235.016.0455.023.0938.02.142s-.015.0954-.036.1388-.051.0822-.087.114c-.206.1838-.433.3417-.677.4702-.535.2873-1.133.4381-1.741.4391z"/><path d="m99.1019 39.6138c-.0966.0026-.1902-.0334-.2602-.1001-.0701-.0666-.1109-.1584-.1134-.2552-.0026-.0968.0333-.1906.0998-.2609.0665-.0702.1581-.1111.2546-.1137l1.3073-.0701-1.7053-1.3396c-.0733-.0606-.1201-.1475-.1303-.2422-.0103-.0947.0168-.1896.0754-.2645.0586-.075.144-.124.2382-.1366.0941-.0127.1895.0121.2657.0689l2.4673 1.9397c.059.0459.102.1084.123.1794.022.0709.022.1469 0 .2177-.022.0709-.066.1332-.124.1787-.059.0455-.13.072-.204.0759l-2.2749.1217c-.0061.0009-.0127.0009-.0192.0009z"/><path d="m109.452 38.5936c-.326-.0003-.65-.0579-.957-.1703-.045-.0164-.086-.0415-.121-.0739s-.064-.0714-.084-.1148c-.02-.0435-.032-.0905-.034-.1383-.002-.0479.005-.0958.022-.1408.016-.045.041-.0864.074-.1217.032-.0353.071-.064.114-.0842.043-.0203.09-.0317.138-.0338s.096.0053.14.0217c.456.1682.956.1681 1.411-.0003s.836-.494 1.073-.9183c.023-.0424.054-.0797.092-.1099.038-.0301.081-.0525.127-.0658.047-.0133.095-.0172.143-.0115.048.0056.094.0207.136.0444.042.0238.079.0556.109.0937.029.0381.051.0817.064.1283.012.0466.016.0953.009.1432-.006.0479-.022.094-.046.1358-.24.4296-.589.7873-1.013 1.0363-.424.2489-.906.3802-1.397.3802z"/><path d="m106.884 55.9675c-1.924-.0003-3.776-.7324-5.182-2.0486s-2.2613-3.1183-2.3933-5.0423c-.0066-.0965.0252-.1918.0886-.2648.0635-.073.1532-.1178.2495-.1244.0963-.0067.1914.0252.2642.0888s.117.1535.124.2501c.069.9967.353 1.9665.833 2.8421s1.144 1.6361 1.947 2.2288c.802.5926 1.723 1.0033 2.7 1.2035.976.2002 1.984.1851 2.954-.0442.97-.2294 1.879-.6674 2.663-1.2838.785-.6164 1.426-1.3965 1.879-2.2861.454-.8896.709-1.8674.748-2.8657.04-.9984-.138-1.9933-.521-2.9158-.037-.0894-.037-.1899 0-.2794.037-.0894.108-.1605.197-.1976s.189-.0372.278-.0002c.09.037.161.108.198.1974.48 1.1583.668 2.4176.546 3.666-.122 1.2485-.549 2.4474-1.244 3.4905-.696 1.043-1.637 1.8977-2.741 2.4883s-2.336.8988-3.588.8971z"/><path d="m96.7769 75.2801c-.0966 0-.1892-.0385-.2574-.1069-.0683-.0684-.1067-.1613-.1067-.2581v-12.1649c0-.0968.0384-.1896.1067-.2581.0682-.0684.1608-.1068.2574-.1068.0965 0 .1891.0384.2574.1068.0683.0685.1066.1613.1066.2581v12.1649c0 .0968-.0383.1897-.1066.2581s-.1609.1069-.2574.1069z"/></g></g><path d="m235.163 138.835h-210.8788c-.2212 0-.3904-.182-.3904-.421s.1692-.421.3904-.421h210.8788c.221 0 .39.182.39.421s-.169.421-.39.421z" fill="#0f1928"/><path d="m196.885 88.3398c.181.1667.181.4362 0 .587l-4.681 4.6817c-.151.1809-.421.1809-.587 0l-2.412-2.4118c-.166-.1507-.166-.4203 0-.587.167-.1649.436-.1649.602 0l2.111 2.1121 4.38-4.382c.167-.1656.437-.1656.587 0z" fill="#096"/><rect fill="#f3f3f4" height="34.2566" rx="6.22847" width="34.2566" x="166" y="1"/><g clip-path="url(#e)"><path d="m187.094 16.3766c-.364 0-.657.2929-.657.6323v1.1195c0 2.046-1.765 3.6923-3.854 3.4871-1.817-.178-3.153-1.8148-3.153-3.6459v-.9607c0-.3394-.294-.6323-.657-.6323-.362 0-.657.2929-.657.6323v.88c0 2.4533 1.752 4.6421 4.161 4.9733v.9594h-1.339c-.339 0-.632.2929-.632.6323s.293.6815.632.6815h3.942c.389 0 .681-.2929.681-.6569s-.292-.6569-.656-.6569h-1.314v-.9243c2.348-.3211 4.16-2.3356 4.16-4.7689v-1.1195c0-.3394-.293-.6323-.657-.6323zm-4.16 4.3794c1.45 0 2.627-1.177 2.627-2.6276v-4.3794c0-1.4261-1.177-2.6277-2.627-2.6277-1.451 0-2.628 1.177-2.628 2.6277v4.3794c0 1.4506 1.177 2.6276 2.628 2.6276zm-1.314-7.007c0-.7254.588-1.3138 1.314-1.3138.725 0 1.314.5884 1.314 1.3138v4.3794c0 .7253-.589 1.3138-1.314 1.3138-.726 0-1.314-.5885-1.314-1.3138z" fill="#096"/></g><path d="m199.204 9.77112c-.151.18089-.421.18089-.587 0l-1.418-1.41869c-.167-.15074-.167-.42029 0-.58699.166-.16492.435-.16492.601 0l1.118 1.119 2.536-2.53716c.167-.16616.436-.16616.587 0 .181.16616.181.43572 0 .60188zm0 3.97238c-.151.1809-.421.1809-.587 0l-2.412-2.4118c-.166-.1507-.166-.4203 0-.587.167-.1649.436-.1649.602 0l2.111 2.1121 4.38-4.38201c.167-.16492.437-.16492.587 0 .181.1667.181.43625 0 .58698z" fill="#096"/><g clip-path="url(#f)"><path d="m215.856 87.5169c1.979 0 3.583-1.6004 3.583-3.5745s-1.604-3.5745-3.583-3.5745-3.584 1.6004-3.584 3.5745 1.605 3.5745 3.584 3.5745z" fill="#fff"/><path d="m215.856 87.8829c-.782 0-1.545-.2311-2.195-.6641s-1.156-1.0484-1.455-1.7684c-.299-.7201-.377-1.5124-.225-2.2767.153-.7644.529-1.4665 1.081-2.0176.553-.5511 1.257-.9264 2.023-1.0784.766-.1521 1.561-.074 2.282.2242.722.2982 1.339.8033 1.773 1.4513s.666 1.4099.666 2.1892c-.001 1.0447-.418 2.0463-1.158 2.785-.741.7387-1.745 1.1543-2.792 1.1555zm0-7.149c-.637 0-1.258.1882-1.787.5408-.529.3525-.942.8536-1.185 1.4399-.244.5863-.307 1.2314-.183 1.8538.124.6223.43 1.194.88 1.6428.45.4487 1.023.7542 1.647.878s1.271.0603 1.859-.1825c.587-.2429 1.09-.6541 1.443-1.1818.354-.5276.542-1.1479.542-1.7825-.001-.8506-.34-1.6662-.943-2.2677s-1.421-.9398-2.273-.9408z" fill="#0f1928"/><path d="m219.647 95.1416c1.979 0 3.583-1.6003 3.583-3.5745 0-1.9741-1.604-3.5744-3.583-3.5744s-3.584 1.6003-3.584 3.5744c0 1.9742 1.605 3.5745 3.584 3.5745z" fill="#fff"/><path d="m219.647 95.5076c-.781 0-1.545-.2311-2.195-.6641-.649-.4329-1.156-1.0484-1.455-1.7684s-.377-1.5123-.224-2.2767c.152-.7644.528-1.4665 1.081-2.0176.552-.551 1.256-.9263 2.022-1.0784.767-.152 1.561-.074 2.283.2243.722.2982 1.339.8033 1.773 1.4513s.666 1.4098.666 2.1892c-.002 1.0447-.418 2.0463-1.159 2.785-.74.7387-1.744 1.1543-2.792 1.1554zm0-7.1489c-.636 0-1.258.1882-1.787.5407-.529.3526-.941.8537-1.185 1.4399-.243.5863-.307 1.2314-.183 1.8538.125.6224.431 1.1941.881 1.6428s1.023.7543 1.647.8781 1.27.0603 1.858-.1826c.588-.2428 1.09-.6541 1.444-1.1817.353-.5276.542-1.148.542-1.7825-.001-.8507-.34-1.6662-.943-2.2677s-1.421-.9398-2.274-.9408z" fill="#0f1928"/><path d="m212.492 95.3369c1.98 0 3.584-1.6003 3.584-3.5744 0-1.9742-1.604-3.5745-3.584-3.5745-1.979 0-3.583 1.6003-3.583 3.5745 0 1.9741 1.604 3.5744 3.583 3.5744z" fill="#fff"/><path d="m212.492 95.7027c-.781 0-1.545-.2311-2.194-.6641-.65-.433-1.156-1.0484-1.455-1.7684s-.378-1.5123-.225-2.2767c.152-.7644.529-1.4665 1.081-2.0176.553-.5511 1.256-.9264 2.023-1.0784.766-.152 1.56-.074 2.282.2242.722.2983 1.339.8033 1.773 1.4513s.666 1.4099.666 2.1892c-.001 1.0447-.418 2.0463-1.159 2.785-.74.7388-1.744 1.1543-2.792 1.1555zm0-7.1489c-.636 0-1.258.1881-1.787.5407-.529.3525-.941.8536-1.184 1.4399-.244.5863-.307 1.2314-.183 1.8538s.43 1.1941.88 1.6428 1.023.7543 1.647.8781 1.271.0602 1.858-.1826c.588-.2429 1.09-.6541 1.444-1.1817.353-.5277.542-1.148.542-1.7826-.001-.8506-.34-1.6661-.943-2.2676s-1.421-.9399-2.274-.9408z" fill="#0f1928"/><path d="m219.867 103.084c1.979 0 3.584-1.601 3.584-3.575 0-1.9741-1.605-3.5744-3.584-3.5744s-3.583 1.6003-3.583 3.5744c0 1.974 1.604 3.575 3.583 3.575z" fill="#fff"/><path d="m219.867 103.45c-.781 0-1.545-.232-2.195-.665-.649-.433-1.156-1.048-1.455-1.768s-.377-1.5123-.224-2.2767c.152-.7644.528-1.4665 1.081-2.0176.552-.551 1.256-.9263 2.022-1.0784.767-.152 1.561-.074 2.283.2243.722.2982 1.339.8033 1.773 1.4513s.666 1.4098.666 2.1892c-.002 1.0449-.418 2.0459-1.159 2.7849-.74.739-1.745 1.154-2.792 1.156zm0-7.1494c-.636 0-1.258.1882-1.787.5407-.529.3526-.941.8537-1.185 1.4399-.243.5863-.307 1.2314-.183 1.8538.124.622.431 1.194.881 1.643s1.023.754 1.647.878 1.27.06 1.858-.183 1.09-.654 1.444-1.181c.353-.528.542-1.148.542-1.7829-.001-.8507-.34-1.6662-.943-2.2677-.604-.6015-1.421-.9399-2.274-.9408z" fill="#0f1928"/><path d="m212.7 103.266c1.98 0 3.584-1.6 3.584-3.5741s-1.604-3.5745-3.584-3.5745c-1.979 0-3.583 1.6004-3.583 3.5745s1.604 3.5741 3.583 3.5741z" fill="#fff"/><g fill="#0f1928"><path d="m212.7 103.633c-.781 0-1.545-.231-2.194-.664-.65-.433-1.156-1.049-1.455-1.769s-.378-1.5122-.225-2.2766c.152-.7644.529-1.4665 1.081-2.0176.553-.551 1.256-.9263 2.023-1.0784.766-.152 1.56-.074 2.282.2243.722.2982 1.339.8033 1.773 1.4513s.666 1.4098.666 2.1892c-.001 1.0448-.418 2.0458-1.159 2.7848-.74.739-1.744 1.154-2.792 1.156zm0-7.1493c-.636 0-1.258.1882-1.787.5407-.529.3526-.941.8537-1.184 1.4399-.244.5863-.307 1.2314-.183 1.8537.124.622.43 1.194.88 1.643s1.023.754 1.647.878 1.271.06 1.858-.183c.588-.242 1.09-.654 1.444-1.181.353-.528.542-1.148.542-1.7828-.001-.8507-.34-1.6662-.943-2.2677s-1.421-.9398-2.274-.9408z"/><path d="m217.336 138.596c-.096.001-.188-.037-.256-.103-.069-.067-.109-.157-.111-.253l-1.431-52.6061c-.001-.048.007-.0959.025-.1408.017-.0449.043-.086.076-.1209.067-.0705.159-.1116.256-.1143.098-.0026.192.0334.263.1002.07.0667.112.1588.114.2558l1.43 52.6071c.002.048-.006.095-.024.14-.017.045-.043.086-.076.121s-.073.063-.117.083c-.044.019-.091.03-.139.031z"/></g></g><g clip-path="url(#g)"><path d="m215.348 146.128c-.055.005-.111-.002-.163-.022s-.098-.053-.135-.095c-.036-.041-.063-.091-.076-.145s-.014-.111-.001-.165l5.015-20.996c.01-.045.029-.087.056-.125.027-.037.06-.068.099-.093.039-.024.083-.04.128-.047s.092-.006.136.005c.045.011.087.03.124.057s.068.061.092.101c.024.039.04.082.047.128.007.045.005.091-.007.136l-5.014 20.997c-.017.069-.055.132-.109.179-.053.048-.121.077-.192.085z" fill="#0f1928"/><path d="m229.006 115.138c-.743-.348-1.626-.029-1.974.713v.002c.347-.744.025-1.629-.72-1.977-.744-.348-1.629-.028-1.976.715l-3.203 6.803.218-7.519c.012-.82-.643-1.496-1.463-1.509-.802-.014-1.469.611-1.507 1.411.036-.819-.599-1.513-1.419-1.551-.819-.038-1.513.596-1.55 1.415 0 .013 0 .025-.001.037l-.032.989-.212 6.669c-.037 1.155.262 2.296.86 3.285s1.47 1.785 2.51 2.29l-.009.016c.763.351 1.587.549 2.426.582l-.002-.018c1.155.022 2.292-.291 3.271-.901.98-.61 1.762-1.491 2.25-2.536l2.825-6.042.419-.896c.35-.741.033-1.625-.708-1.976z" fill="#b3e0d1"/><path d="m218.241 119.837c-.049.005-.099 0-.147-.016-.047-.016-.09-.041-.127-.075-.036-.034-.065-.075-.084-.121s-.028-.095-.027-.145l.185-5.834c.002-.045.012-.09.031-.132.019-.041.045-.079.079-.11.033-.031.072-.055.115-.071.042-.016.088-.024.133-.022.046.001.091.012.132.031.042.019.079.045.11.079.032.033.056.072.072.115.016.042.024.088.022.133l-.185 5.834c-.002.084-.035.164-.092.225s-.134.1-.217.109zm6.407 1.538c-.062.007-.123-.003-.18-.028-.056-.026-.104-.065-.14-.116-.036-.05-.057-.108-.063-.17-.006-.061.005-.122.031-.178l2.471-5.286c.04-.081.111-.143.197-.173.085-.03.179-.025.261.014.083.038.146.107.178.192s.03.179-.007.262l-2.471 5.285c-.025.055-.064.101-.112.136-.049.035-.106.056-.165.062zm-4.893 6.305c-.056.005-.112-.002-.163-.022-.052-.021-.098-.053-.135-.095-.037-.041-.063-.091-.077-.145-.013-.054-.013-.111 0-.165l1.419-5.94c.022-.09.078-.167.156-.215.079-.048.173-.063.263-.041.089.021.166.077.215.156.048.078.063.173.042.262l-1.42 5.941c-.017.069-.054.132-.108.179-.054.048-.121.077-.192.085z" fill="#0f1928"/></g><g clip-path="url(#h)"><path d="m236.162 113.347.026-1.242c.013-.567-.449-1.037-1.032-1.049-.164-.004-.326.03-.475.099l-3.197 1.475 3.13 1.605c.516.265 1.155.072 1.426-.431.077-.141.118-.297.122-.457z" fill="#fff"/><path d="m235.104 114.667c.137 0 .275-.02.41-.061.173-.052.334-.136.473-.249s.254-.251.338-.407c.099-.184.153-.388.158-.596l.027-1.242c.004-.177-.028-.352-.093-.516-.066-.164-.164-.314-.29-.44-.124-.128-.274-.23-.439-.301-.166-.071-.344-.109-.525-.112-.214-.005-.426.04-.619.129l-3.197 1.475c-.054.025-.1.064-.132.112-.033.049-.051.106-.052.164s.014.115.044.165c.031.05.075.091.128.118l3.129 1.606c.197.102.417.155.64.155zm.736-1.326c-.002.11-.031.219-.084.317-.045.083-.106.157-.18.217-.075.06-.16.106-.253.133-.092.028-.189.038-.285.03-.096-.009-.189-.036-.275-.08l-2.561-1.314 2.617-1.207c.103-.047.216-.071.33-.069.097.002.192.022.28.06s.168.092.234.16c.067.068.12.148.155.235.035.088.051.181.049.275z" fill="#0f1928"/><path d="m232.218 108.073-1.276-.026c-.583-.01-1.064.442-1.074 1.01-.003.158.031.315.101.458l1.515 3.115 1.649-3.052c.27-.503.07-1.125-.446-1.388-.145-.074-.306-.114-.469-.117z" fill="#fff"/><path d="m231.484 112.943c.059 0 .116-.016.166-.045.05-.03.091-.072.119-.123l1.648-3.051c.352-.656.091-1.468-.581-1.811-.189-.096-.398-.148-.611-.153l-1.276-.026c-.761-.013-1.389.578-1.403 1.318-.003.206.042.41.132.596l1.516 3.116c.025.052.065.097.116.128.05.032.108.049.167.051zm-.561-4.583h.013l1.275.026c.114.002.226.03.326.081.173.089.303.24.361.421s.04.377-.05.545l-1.349 2.497-1.24-2.549c-.048-.099-.072-.209-.07-.318.003-.188.082-.366.22-.498.137-.131.322-.205.514-.205z" fill="#0f1928"/></g><g clip-path="url(#i)" fill="#0f1928"><path d="m161.948 138.265c.09-.001.178-.034.245-.095.068-.061.111-.145.121-.235l1.832-16.563c.01-.097-.019-.194-.08-.27s-.15-.125-.246-.136c-.097-.01-.194.018-.27.078-.076.061-.126.149-.137.247l-1.832 16.562c-.011.097.017.196.078.272.061.077.15.126.248.137.013.002.027.003.041.003z"/><path d="m167.575 121.906c.487-.002.964-.141 1.376-.403s.742-.635.953-1.077c.21-.442.292-.934.237-1.421-.056-.487-.247-.948-.552-1.33-.212-.268-.475-.491-.773-.656-.299-.164-.627-.268-.965-.305l-7.16-.798c-.683-.075-1.368.125-1.903.557-.536.432-.879 1.06-.954 1.747-.074.686.126 1.373.555 1.911.43.539 1.054.884 1.736.96l7.16.798c.096.011.193.016.29.017zm-7.172-5.264c.069 0 .138.004.206.011l7.161.799c.486.055.931.302 1.236.687.306.385.448.875.394 1.364-.053.49-.297.938-.678 1.247s-.868.454-1.355.402l-7.16-.798c-.365-.04-.709-.188-.989-.425-.281-.236-.485-.552-.588-.905-.102-.354-.098-.73.012-1.081.111-.351.323-.662.609-.892.326-.265.733-.409 1.152-.409zm7.672 3.594c.197 0 .389-.068.542-.193.134-.109.233-.254.284-.419s.053-.341.005-.507c-.048-.165-.144-.313-.276-.424s-.293-.18-.464-.198l-8.127-.906c-.113-.013-.228-.003-.338.029-.109.032-.211.086-.3.158-.089.071-.163.16-.218.261-.055.1-.089.211-.101.325-.025.23.042.46.186.641.144.18.354.295.582.321l8.127.906c.033.004.065.006.098.006zm.01-1.004c.035.004.067.021.09.049.01.013.018.028.023.044.005.017.006.034.004.05-.002.018-.007.035-.015.05-.009.016-.02.03-.034.041-.013.011-.028.019-.044.023-.016.005-.033.006-.05.004l-8.127-.906c-.017-.001-.034-.006-.049-.014-.015-.009-.029-.02-.039-.033-.011-.013-.02-.029-.024-.045-.005-.017-.007-.034-.005-.051.004-.036.021-.068.048-.091.013-.011.028-.019.045-.023.016-.005.033-.006.05-.004zm-8.855 9.484c.498 0 1.294-.225 2.423-.683.889-.361 1.641-.729 1.672-.745.056-.027.104-.068.14-.119s.059-.11.066-.172-.002-.125-.026-.183c-.023-.058-.061-.109-.109-.148-.28-.226-2.759-2.209-3.83-2.329-.578-.064-1.158.105-1.612.47-.455.365-.747.896-.812 1.477-.06.579.109 1.159.472 1.613s.889.745 1.465.811c.05.006.1.008.151.008zm3.235-1.84c-1.161.532-2.747 1.157-3.305 1.095-.19-.022-.374-.081-.542-.174-.167-.094-.314-.219-.433-.37-.119-.148-.207-.317-.261-.499-.053-.182-.07-.373-.049-.562.043-.385.237-.738.539-.98.301-.243.686-.355 1.07-.312.555.062 1.966 1.024 2.981 1.802z"/><path d="m167.013 129.575c.5.001.985-.171 1.375-.486.223-.178.408-.4.545-.651s.223-.527.253-.812c.064-.581-.105-1.163-.467-1.62-.363-.457-.891-.75-1.469-.816-.48-.054-1.323.167-2.575.675-.888.361-1.641.729-1.673.745-.055.027-.103.068-.139.119s-.059.11-.065.172c-.007.063.001.125.025.183s.062.109.11.148c.279.226 2.758 2.209 3.83 2.329.083.009.166.014.25.014zm.072-3.652c.028 0 .056.001.084.004.383.044.733.239.974.542.241.304.352.69.31 1.076-.02.188-.076.37-.167.536-.09.166-.212.312-.359.43-.151.121-.325.211-.51.265-.186.054-.38.07-.572.048-.556-.062-1.967-1.024-2.981-1.802 1.107-.508 2.603-1.099 3.221-1.099z"/></g><g clip-path="url(#j)"><path d="m147.015 138.458c-.092.016-.187-.005-.264-.06s-.13-.139-.148-.233l-2.617-14.329c-.017-.094.003-.191.055-.269.053-.078.135-.131.227-.148s.187.005.264.06c.077.054.13.138.147.232l2.618 14.329c.017.094-.003.191-.056.269-.053.079-.134.132-.226.149z" fill="#0f1928"/><path d="m144.786 126.257c1.341-.241 2.224-1.549 1.974-2.921-.251-1.371-1.541-2.287-2.881-2.046-1.341.242-2.224 1.55-1.974 2.921.251 1.372 1.541 2.288 2.881 2.046z" fill="#b3e0d1"/></g><g clip-path="url(#k)"><path d="m180.479 118.739c-1.012-.132-1.962-.558-2.729-1.226-.768-.667-1.319-1.545-1.583-2.523-.265-.978-.231-2.011.097-2.97s.935-1.799 1.744-2.415c.81-.617 1.786-.981 2.804-1.047 1.019-.067 2.034.168 2.918.674s1.597 1.261 2.049 2.169c.451.908.622 1.928.489 2.932-.18 1.345-.891 2.564-1.976 3.391-1.085.826-2.456 1.191-3.813 1.015zm1.26-9.509c-.885-.115-1.784.032-2.584.423-.8.392-1.464 1.009-1.91 1.776-.446.766-.653 1.646-.594 2.529.058.883.38 1.728.923 2.43s1.284 1.228 2.129 1.513c.844.284 1.755.314 2.617.085.861-.229 1.635-.707 2.223-1.372s.963-1.488 1.08-2.365c.154-1.176-.168-2.365-.896-3.306s-1.803-1.557-2.988-1.713z" fill="#0f1928"/><path d="m180.479 118.739c-1.012-.132-1.962-.558-2.729-1.226-.768-.667-1.319-1.545-1.583-2.523-.265-.978-.231-2.011.097-2.97s.935-1.799 1.744-2.415c.81-.617 1.786-.981 2.804-1.047 1.019-.067 2.034.168 2.918.674s1.597 1.261 2.049 2.169c.451.908.622 1.928.489 2.932-.18 1.345-.891 2.564-1.976 3.391-1.085.826-2.456 1.191-3.813 1.015zm1.26-9.509c-.885-.115-1.784.032-2.584.423-.8.392-1.464 1.009-1.91 1.776-.446.766-.653 1.646-.594 2.529.058.883.38 1.728.923 2.43s1.284 1.228 2.129 1.513c.844.284 1.755.314 2.617.085.861-.229 1.635-.707 2.223-1.372s.963-1.488 1.08-2.365c.154-1.176-.168-2.365-.896-3.306s-1.803-1.557-2.988-1.713z" fill="#0f1928"/><path d="m180.521 118.42c2.648.345 5.076-1.503 5.424-4.129s-1.516-5.035-4.164-5.381c-2.648-.345-5.076 1.503-5.424 4.129s1.517 5.035 4.164 5.381z" fill="#fff"/><g fill="#0f1928"><path d="m180.479 118.739c-1.012-.132-1.962-.558-2.729-1.226-.768-.667-1.319-1.545-1.583-2.523-.265-.978-.231-2.011.097-2.97s.935-1.799 1.744-2.415c.81-.617 1.786-.981 2.804-1.047 1.019-.067 2.034.168 2.918.674s1.597 1.261 2.049 2.169c.451.908.622 1.928.489 2.932-.18 1.345-.891 2.564-1.976 3.391-1.085.826-2.456 1.191-3.813 1.015zm1.26-9.509c-.885-.115-1.784.032-2.584.423-.8.392-1.464 1.009-1.91 1.776-.446.766-.653 1.646-.594 2.529.058.883.38 1.728.923 2.43s1.284 1.228 2.129 1.513c.844.284 1.755.314 2.617.085.861-.229 1.635-.707 2.223-1.372s.963-1.488 1.08-2.365c.154-1.176-.168-2.365-.896-3.306s-1.803-1.557-2.988-1.713z"/><path d="m176.007 152.502c-.086-.011-.163-.055-.216-.123s-.076-.154-.064-.239l4.472-33.762c.011-.085.056-.162.124-.214.069-.052.155-.075.241-.064.085.011.163.056.215.123.053.068.076.154.065.239l-4.473 33.762c-.011.085-.056.162-.124.214s-.155.075-.24.064zm5.003-37.771c-.975-.129-1.893-.532-2.646-1.161-.752-.629-1.308-1.458-1.601-2.389-.013-.041-.019-.084-.015-.127.003-.042.015-.084.035-.122s.047-.071.08-.099c.033-.027.071-.048.113-.061.041-.012.084-.017.127-.013s.085.017.123.037.071.048.099.081c.027.033.047.071.059.113.256.813.742 1.538 1.399 2.087.658.55 1.46.902 2.312 1.015.852.109 1.717-.024 2.496-.384.778-.361 1.437-.933 1.899-1.651.047-.072.12-.123.204-.141s.172-.003.245.043c.072.046.124.118.143.201.019.084.003.171-.043.243-.529.821-1.283 1.477-2.173 1.889-.891.412-1.881.564-2.856.439z"/><path d="m183.079 114.546c-.046-.006-.091-.023-.131-.048-.831-.524-1.495-1.272-1.913-2.157s-.573-1.869-.448-2.838c.033-.244.082-.484.15-.721.01-.041.03-.08.056-.114s.059-.063.097-.084c.037-.021.078-.035.121-.04.043-.006.087-.002.128.009.042.012.081.032.115.058.033.027.062.06.082.098.021.037.034.079.039.121.004.043 0 .086-.012.127-.059.207-.103.417-.131.63-.109.847.026 1.707.392 2.481.365.773.945 1.427 1.672 1.886.062.039.11.098.134.168.023.069.023.145-.003.214-.025.069-.073.127-.136.166-.064.038-.138.053-.212.044z"/></g></g><g clip-path="url(#l)"><path d="m194.928 122.473c-.253-.043-.513.017-.723.166-.21.15-.353.378-.397.633.022-.127.019-.256-.009-.381-.027-.125-.079-.243-.152-.347s-.166-.193-.273-.261c-.108-.068-.227-.114-.353-.136-.252-.043-.512.017-.722.167s-.353.377-.397.632c.044-.255-.014-.516-.161-.727-.148-.211-.372-.353-.625-.397-.253-.043-.513.017-.723.167s-.353.377-.397.632c.022-.126.019-.255-.009-.38-.027-.125-.079-.243-.152-.347-.073-.105-.166-.194-.273-.262-.108-.068-.227-.114-.353-.135-.252-.043-.512.017-.722.167s-.352.377-.396.632c.022-.126.019-.256-.009-.38-.028-.125-.08-.243-.153-.348-.073-.104-.166-.193-.273-.261s-.227-.114-.352-.135c-.253-.043-.513.016-.723.166s-.353.378-.397.633l-.696 4.021c-.221 1.275.07 2.583.807 3.637.738 1.053 1.862 1.766 3.126 1.982.626.107 1.267.088 1.886-.055.62-.142 1.207-.407 1.726-.778.52-.37.963-.84 1.303-1.382.341-.542.572-1.146.681-1.777l.697-4.022c.044-.255-.014-.517-.161-.727-.148-.211-.372-.354-.625-.397z" fill="#fff"/><g fill="#0f1928"><path d="m189.365 131.936c-1.349-.232-2.548-.993-3.335-2.118-.787-1.124-1.098-2.52-.865-3.881l.697-4.022c.045-.261.167-.502.352-.692.184-.19.42-.319.678-.37.258-.052.525-.023.766.082.24.106.443.282.581.507.143-.116.308-.2.485-.246.177-.047.362-.055.542-.024.18.03.352.099.503.202s.279.237.375.393c.143-.116.309-.2.486-.246.177-.047.362-.055.542-.024s.351.1.502.202c.152.103.28.237.375.393.144-.116.309-.199.486-.246.178-.046.363-.055.543-.024s.351.1.503.202c.151.103.279.237.375.393.143-.115.309-.199.486-.246.177-.046.362-.054.542-.024.338.059.639.25.836.532s.275.632.216.973l-.696 4.022c-.237 1.36-1 2.572-2.12 3.371s-2.507 1.12-3.855.891zm-2.117-10.439c-.168-.029-.34.011-.479.11s-.233.25-.263.418l-.696 4.022c-.206 1.189.065 2.408.753 3.391.687.982 1.735 1.647 2.914 1.848 1.178.201 2.389-.078 3.368-.776s1.644-1.758 1.85-2.947l.696-4.021c.029-.169-.009-.342-.107-.481-.097-.14-.245-.234-.412-.263-.168-.028-.34.011-.478.11-.139.099-.234.25-.263.419-.015.086-.064.163-.135.213-.071.051-.159.071-.244.057-.086-.015-.162-.063-.212-.134-.049-.072-.069-.16-.054-.246.029-.169-.009-.342-.107-.482-.098-.139-.247-.234-.414-.262-.167-.029-.339.011-.478.11s-.234.249-.263.418c-.015.086-.063.163-.134.214s-.159.071-.245.056c-.085-.014-.161-.062-.211-.134-.05-.071-.07-.16-.055-.246.015-.083.013-.169-.006-.251-.018-.083-.052-.161-.101-.23-.048-.069-.109-.128-.18-.173s-.15-.075-.233-.089-.168-.012-.25.007-.159.054-.228.103-.127.111-.172.183-.076.152-.09.235c-.015.086-.064.163-.135.214s-.159.071-.244.056c-.086-.014-.162-.063-.212-.134s-.069-.16-.054-.246c.029-.169-.009-.342-.107-.481s-.246-.234-.413-.262c-.168-.029-.34.011-.478.11-.139.099-.234.249-.263.418-.015.086-.063.163-.134.214-.071.05-.159.071-.245.056-.085-.015-.161-.063-.211-.134s-.07-.16-.055-.246c.029-.169-.009-.342-.107-.482-.097-.139-.246-.233-.413-.262z"/><path d="m188.232 138.475c-.085-.014-.161-.063-.211-.134s-.07-.16-.055-.246l1.694-9.784c.015-.087.064-.164.135-.214.071-.051.159-.071.244-.057.086.015.162.063.212.135.049.071.069.159.054.246l-1.694 9.784c-.015.086-.063.163-.134.214s-.159.071-.245.056zm4.879-11.177c-.086-.015-.162-.063-.212-.134-.049-.072-.069-.16-.054-.246l.654-3.778c.015-.087.063-.163.134-.214s.159-.071.245-.056c.085.014.161.062.211.134.05.071.07.16.055.246l-.654 3.778c-.015.086-.064.163-.135.213-.071.051-.159.071-.244.057zm-1.907-.326c-.085-.014-.161-.062-.211-.134-.05-.071-.07-.16-.055-.246l.654-3.778c.015-.086.064-.163.135-.213.071-.051.159-.071.244-.057.086.015.162.063.212.134.05.072.069.16.054.246l-.654 3.778c-.015.087-.063.163-.134.214s-.159.071-.245.056zm-1.905-.325c-.086-.014-.162-.063-.212-.134s-.069-.16-.054-.246l.654-3.778c.015-.086.063-.163.134-.214.071-.05.159-.071.245-.056.085.015.161.063.211.134s.07.16.055.246l-.654 3.778c-.015.086-.064.163-.135.214s-.159.071-.244.056zm-1.907-.325c-.085-.015-.161-.063-.211-.134-.05-.072-.07-.16-.055-.246l.654-3.778c.015-.086.064-.163.135-.214s.159-.071.244-.056c.086.014.162.062.212.134.049.071.069.16.054.246l-.654 3.778c-.015.086-.063.163-.134.214-.071.05-.159.071-.245.056z"/></g></g><g clip-path="url(#m)"><path d="m171.276 138.041c.082 0 .161-.028.225-.08.064-.051.108-.124.126-.204l1.388-6.235c.011-.047.012-.095.004-.142s-.026-.093-.051-.133c-.025-.041-.058-.076-.097-.103-.038-.028-.082-.047-.128-.058-.094-.021-.191-.004-.272.048-.081.051-.138.133-.159.228l-1.387 6.235c-.012.053-.012.108 0 .162.012.053.036.103.07.146.033.042.076.077.125.1.049.024.102.036.156.036z" fill="#0f1928"/><path d="m173.078 131.489c-1.042 0-1.886-.855-1.886-1.909s.844-1.909 1.886-1.909c1.041 0 1.886.855 1.886 1.909s-.845 1.909-1.886 1.909z" fill="#fff"/><path d="m173.078 131.853c.444 0 .879-.133 1.248-.383.37-.249.657-.605.827-1.02s.215-.872.128-1.313c-.086-.441-.3-.847-.614-1.164-.315-.318-.715-.535-1.151-.623-.435-.087-.887-.042-1.298.13-.41.172-.761.463-1.008.837s-.378.813-.378 1.263c0 .603.237 1.181.658 1.607s.992.666 1.588.666zm0-3.817c.302 0 .597.091.848.26.251.17.446.411.562.693.115.282.145.593.086.892-.058.3-.204.575-.417.791-.214.216-.485.363-.781.422-.296.06-.603.029-.882-.088-.279-.116-.517-.314-.684-.568-.168-.254-.258-.553-.258-.858.001-.409.162-.802.448-1.091.286-.29.674-.452 1.078-.453z" fill="#0f1928"/></g><g clip-path="url(#n)"><path d="m194.037 116.929.952-.499c.435-.228.973-.061 1.203.372.065.122.1.258.103.396l.067 2.974-2.428-1.737c-.4-.285-.492-.84-.207-1.238.081-.112.187-.204.31-.268zm5.575.933.503.949c.23.433.065.97-.37 1.198-.122.065-.259.1-.397.103l-2.986.06 1.738-2.416c.287-.398.844-.488 1.244-.201.112.08.204.185.268.307z" fill="#b3e0d1"/></g><g clip-path="url(#o)"><path d="m201.11 137.634-2.566-4.56c-.298-.534-.105-1.207.431-1.504.066-.037.137-.067.209-.089.239-.073.496-.064.729.027.233.09.428.256.555.47l1.188 2.017-.028-2.972c-.001-.131.024-.26.074-.381s.123-.231.215-.324.202-.167.323-.218c.121-.05.251-.077.382-.078h.006c.258 0 .506.099.692.276.187.178.297.42.308.676l.125 3.206 1.01-1.54c.139-.209.352-.359.597-.419.246-.06.505-.025.725.098l.132.074c.229.129.398.344.469.596.071.253.038.523-.09.752l-2.218 3.893" fill="#fff"/><path d="m201.11 137.966c-.059 0-.117-.016-.169-.046-.051-.03-.093-.073-.122-.124l-2.566-4.56c-.093-.165-.152-.347-.174-.534-.021-.188-.006-.378.047-.56.051-.181.138-.351.256-.499s.264-.271.431-.363c.086-.048.177-.087.272-.116.644-.196 1.33.07 1.67.646l.556.943-.017-1.727c-.004-.733.591-1.331 1.326-1.335h.002c.723 0 1.308.557 1.339 1.269l.084 2.167.438-.668c.383-.578 1.158-.767 1.764-.43l.134.075c.634.359.861 1.166.506 1.799l-2.219 3.894c-.021.039-.05.073-.084.1-.035.028-.075.048-.117.06-.043.012-.087.015-.131.01s-.086-.019-.124-.041c-.039-.021-.073-.05-.1-.085s-.046-.075-.058-.117c-.011-.042-.014-.087-.008-.13.005-.044.02-.086.042-.124l2.218-3.892c.176-.315.063-.718-.254-.897l-.13-.074c-.303-.167-.69-.073-.881.215l-1.009 1.539c-.039.059-.095.104-.162.129-.066.025-.138.029-.206.01s-.129-.059-.173-.114-.069-.123-.071-.193l-.125-3.206c-.007-.171-.081-.332-.205-.45s-.289-.183-.461-.183h-.001c-.371.002-.669.301-.667.667l.028 2.97c.001.073-.023.145-.067.203s-.107.101-.178.12c-.07.019-.146.015-.214-.012-.068-.028-.125-.077-.162-.14l-1.188-2.016c-.088-.151-.225-.267-.388-.33s-.343-.07-.51-.018c-.051.015-.099.036-.145.062-.182.1-.313.265-.37.464s-.033.408.068.588l2.566 4.56c.028.05.043.107.042.165 0 .058-.016.115-.045.165-.03.049-.072.091-.122.12-.05.028-.108.044-.166.044z" fill="#0f1928"/></g></svg>