<svg width="213" height="139" fill="none" xmlns="http://www.w3.org/2000/svg"><g clip-path="url(#a)"><path d="M70.528 138.056a.369.369 0 0 1-.17-.039.376.376 0 0 1-.206-.267.38.38 0 0 1 .005-.173l11.909-44.564a.38.38 0 0 1 .319-.28.384.384 0 0 1 .42.476l-11.908 44.564a.38.38 0 0 1-.37.283Zm37.184 0a.381.381 0 0 1-.379-.324l-6.82-44.564a.38.38 0 0 1 .321-.429.386.386 0 0 1 .436.314l6.82 44.565a.37.37 0 0 1-.088.306.386.386 0 0 1-.29.132Z" fill="#fff"/><path d="M80.54 93.111S86.7 64.21 86.84 63.436c.44-2.422 1.363-4.738 3.831-5.226.308-.06.62-.091.934-.091h13.998c.313 0 .626.03.934.091 2.598.514 4.286 3.027 4.009 5.597l-5.911 29.534" fill="#121212"/><path d="M104.635 93.723a.39.39 0 0 1-.296-.14.384.384 0 0 1-.08-.316l5.908-29.517c.254-2.437-1.37-4.704-3.705-5.166a4.427 4.427 0 0 0-.859-.084H91.606c-.288 0-.577.028-.86.084-1.864.369-2.986 1.932-3.529 4.92-.14.77-6.053 28.506-6.304 29.686a.38.38 0 0 1-.453.29.383.383 0 0 1-.296-.448c.061-.289 6.162-28.904 6.3-29.664.381-2.1 1.225-4.957 4.133-5.532.332-.065.67-.098 1.009-.098h13.997c.338 0 .677.033 1.009.099 2.724.538 4.62 3.179 4.315 6.01a.396.396 0 0 1-.005.035l-5.912 29.534a.38.38 0 0 1-.375.307Z" fill="#fff"/><path d="m66.29 92.73 38.746-.004v.508c0 .988-.805 1.79-1.797 1.79h-38.82l1.87-2.294Z" fill="#fff"/></g><g clip-path="url(#b)"><path d="M69.886 149.502a.352.352 0 0 1-.348-.306l-3.459-26.012a.351.351 0 1 1 .699-.093l3.458 26.012a.357.357 0 0 1-.084.279.353.353 0 0 1-.266.12Z" fill="#fff"/><path d="M66.429 126.295a3.156 3.156 0 0 0 3.153-3.157 3.156 3.156 0 0 0-3.153-3.157 3.155 3.155 0 0 0-3.154 3.157 3.155 3.155 0 0 0 3.154 3.157Z" fill="#045D1F"/></g><g clip-path="url(#c)"><path d="M58.924 130.056c.976 0 1.768-.779 1.768-1.74s-.792-1.74-1.768-1.74-1.768.779-1.768 1.74.792 1.74 1.768 1.74Z" fill="#121212"/><path d="M58.924 130.389c-.416 0-.824-.122-1.17-.35a2.075 2.075 0 0 1-.775-.93 2.042 2.042 0 0 1-.12-1.197c.081-.403.282-.772.576-1.062a2.135 2.135 0 0 1 2.294-.449c.385.157.714.423.946.763.23.341.354.742.354 1.152a2.06 2.06 0 0 1-.617 1.465c-.395.389-.93.607-1.488.608Zm0-3.481c-.283 0-.56.083-.795.237a1.416 1.416 0 0 0-.526.632 1.389 1.389 0 0 0 .31 1.534 1.442 1.442 0 0 0 2.2-.213 1.392 1.392 0 0 0-.178-1.777 1.446 1.446 0 0 0-1.011-.413Z" fill="#fff"/><path d="M53.552 131.774c.772 0 1.397-.615 1.397-1.374 0-.759-.625-1.375-1.397-1.375-.77 0-1.396.616-1.396 1.375s.625 1.374 1.396 1.374Z" fill="#121212"/><path d="M53.552 132.107c-.343 0-.678-.1-.963-.288a1.714 1.714 0 0 1-.639-.766 1.681 1.681 0 0 1 .376-1.86 1.76 1.76 0 0 1 1.89-.37c.317.129.587.348.778.628a1.69 1.69 0 0 1-.216 2.155c-.325.32-.766.5-1.226.501Zm0-2.749a1.052 1.052 0 0 0-.978.643 1.026 1.026 0 0 0 .23 1.136 1.075 1.075 0 0 0 1.153.225 1.033 1.033 0 0 0 .343-1.699 1.068 1.068 0 0 0-.748-.305Zm2.759 8.291a.342.342 0 0 1-.27-.132.33.33 0 0 1-.055-.292l2.612-9.001a.335.335 0 0 1 .287-.241.346.346 0 0 1 .25.07.324.324 0 0 1 .125.224.326.326 0 0 1-.012.13l-2.612 9.001a.336.336 0 0 1-.325.241Z" fill="#fff"/><path d="M56.311 137.649a.338.338 0 0 1-.314-.211l-2.759-6.917a.326.326 0 0 1 .005-.254.334.334 0 0 1 .186-.177.34.34 0 0 1 .438.188l2.759 6.916a.33.33 0 0 1-.157.416.347.347 0 0 1-.158.039Z" fill="#fff"/></g><g clip-path="url(#d)"><path d="M87.864 38.285a2.977 2.977 0 0 0 2.973-2.98 2.977 2.977 0 0 0-2.973-2.98 2.977 2.977 0 0 0-2.973 2.98 2.977 2.977 0 0 0 2.973 2.98Z" fill="#121212"/><path d="M87.865 38.65a3.33 3.33 0 0 1-3.084-2.065 3.352 3.352 0 0 1 .724-3.646 3.334 3.334 0 0 1 5.134.507 3.35 3.35 0 0 1-.416 4.223 3.336 3.336 0 0 1-2.358.981Zm0-5.96a2.604 2.604 0 0 0-2.411 1.614 2.622 2.622 0 0 0 .566 2.85 2.607 2.607 0 0 0 4.454-1.85c-.001-.693-.276-1.357-.766-1.848a2.609 2.609 0 0 0-1.843-.767Z" fill="#fff"/><path fill-rule="evenodd" clip-rule="evenodd" d="M26.433 113.491c-2.176 1.936-7.97 4.569-10.926 3.835-3.631-.893-6.59-1.885-6.59-1.885a5.982 5.982 0 0 0-7.513 2.02l15.818 13.095 6.94-.694-3.211 3.811 4.812 3.994 11.713-13.349" fill="#121212"/><path d="M25.764 138.032a.359.359 0 0 1-.232-.084l-4.813-3.993a.375.375 0 0 1-.13-.249.363.363 0 0 1 .084-.268l2.632-3.123-6.046.604a.36.36 0 0 1-.268-.081L1.173 117.743a.368.368 0 0 1-.067-.489 6.331 6.331 0 0 1 7.95-2.153c.266.089 3.12 1.03 6.538 1.87 2.754.685 8.382-1.782 10.598-3.753a.352.352 0 0 1 .264-.093.368.368 0 0 1 .138.035.367.367 0 0 1 .081.604c-2.32 2.064-8.198 4.675-11.255 3.916a93.58 93.58 0 0 1-6.617-1.893.305.305 0 0 1-.04-.016 5.597 5.597 0 0 0-6.86 1.628l15.435 12.779 6.79-.679a.368.368 0 0 1 .208.041.371.371 0 0 1 .19.361.36.36 0 0 1-.085.196l-2.973 3.53 4.257 3.533 11.478-13.083a.361.361 0 0 1 .514-.033.365.365 0 0 1 .033.515l-11.713 13.349a.37.37 0 0 1-.273.124Z" fill="#fff"/><path fill-rule="evenodd" clip-rule="evenodd" d="M73.156 126.26c-.742 2.374-2.07 4.433-4.067 5.137-3.597 1.261-4.648 3.52-4.439 6.419h17.692l3.762-5.96v5.96h5.46V126.26H73.157Z" fill="#121212"/><path d="M91.565 138.182h-5.46a.364.364 0 0 1-.364-.365v-4.701l-3.09 4.896a.368.368 0 0 1-.308.171H64.65a.363.363 0 0 1-.363-.339c-.247-3.426 1.24-5.584 4.681-6.79 1.672-.589 3.036-2.331 3.84-4.903a.364.364 0 0 1 .348-.255h18.409a.364.364 0 0 1 .364.365v11.557a.364.364 0 0 1-.365.364Zm-5.096-.73H91.2v-10.827h-17.78c-.885 2.658-2.374 4.47-4.21 5.117-3.009 1.055-4.32 2.823-4.215 5.71h17.147l3.655-5.79a.363.363 0 0 1 .671.194v5.596Z" fill="#fff"/><path fill-rule="evenodd" clip-rule="evenodd" d="M34.465 69.192c-3.182-2.53-4.876-4.573-5.08-6.127-.346-2.61-.187-4.535-3.906-6.34-1.678-.81-4.308-1.764-3.48-3.342.577-1.082 3.702-.088 6.029.562-2.644-2.265-6.116-5.233-5.163-6.49.953-1.259 3.673.657 7.082 3.614-3.173-3.9-5.384-5.525-4.328-6.634 1.093-1.142 4.145 1.268 6.756 4.15.44-.178.852.041 1.24.657 1.101 1.747 2.922 5.072 5.461 9.975" fill="#121212"/><path d="M34.466 69.556a.361.361 0 0 1-.226-.078c-3.29-2.616-4.995-4.698-5.215-6.365-.034-.258-.063-.51-.092-.755-.254-2.186-.437-3.764-3.611-5.305-.195-.094-.404-.19-.619-.29-1.31-.605-2.795-1.292-3.146-2.33a1.505 1.505 0 0 1 .122-1.22c.581-1.092 2.656-.669 4.87-.063-2.588-2.257-4.973-4.596-3.972-5.917a1.318 1.318 0 0 1 .95-.527c.802-.084 1.895.385 3.52 1.554-.763-.862-1.364-1.56-1.707-2.141-.173-.293-.7-1.184.018-1.936a1.34 1.34 0 0 1 1.023-.402c1.875.025 4.795 2.956 6.114 4.393.407-.07.927.074 1.43.873 1.101 1.747 2.944 5.113 5.476 10.002a.366.366 0 0 1-.433.516.364.364 0 0 1-.213-.18c-2.523-4.871-4.355-8.218-5.446-9.949-.419-.665-.692-.555-.795-.513a.363.363 0 0 1-.406-.093c-2.364-2.609-4.616-4.304-5.737-4.32a.607.607 0 0 0-.487.178c-.514.539.241 1.436 1.997 3.414.693.78 1.478 1.665 2.35 2.737a.366.366 0 0 1-.271.595.364.364 0 0 1-.249-.089c-2.01-1.744-4.832-4.047-6.11-3.913a.6.6 0 0 0-.445.243c-.165.22-.229.82 1.202 2.39 1.058 1.161 2.558 2.447 3.883 3.581l.026.022a.365.365 0 0 1-.334.63l-.576-.163c-1.736-.492-4.642-1.316-5.034-.58a.78.78 0 0 0-.076.644c.25.741 1.643 1.385 2.762 1.901.218.102.43.2.63.296 3.534 1.715 3.759 3.644 4.018 5.877.028.242.057.49.09.745.192 1.45 1.856 3.43 4.947 5.888a.365.365 0 0 1-.227.651Z" fill="#fff"/><path d="M40.026 61.161a.363.363 0 0 1-.3-.157c-.025-.038-.188-.27-.35-.502l-.354-.506a.37.37 0 0 1-.037-.065c-.648-1.535-1.436-2.989-2.198-4.394-.337-.62-.685-1.262-1.017-1.904a12.333 12.333 0 0 0-.834-1.362.365.365 0 0 1 .602-.411c.325.46.619.942.88 1.44.328.632.674 1.27 1.008 1.888.765 1.41 1.555 2.868 2.214 4.423l.33.471.354.506a.366.366 0 0 1-.299.573h.001Z" fill="#fff"/><path fill-rule="evenodd" clip-rule="evenodd" d="M35.232 60.96c-1.309-1.657-1.297-4.008-2.005-6.313-.985-3.174-1.323-5.304-.784-5.875.777-.82 1.872 1.293 3.06 3.625.472.93 1.686 3.16 3.64 6.69" fill="#121212"/><path d="M35.233 61.326a.362.362 0 0 1-.286-.139c-.927-1.174-1.222-2.633-1.533-4.176-.15-.74-.304-1.506-.535-2.257-1.46-4.705-1.098-5.811-.7-6.233a.842.842 0 0 1 .755-.286c.864.125 1.67 1.593 2.893 3.995.47.923 1.692 3.17 3.634 6.68a.366.366 0 0 1-.418.527.364.364 0 0 1-.218-.173c-1.947-3.517-3.173-5.772-3.647-6.702-.715-1.403-1.795-3.524-2.348-3.605-.018-.002-.053-.007-.122.066-.148.158-.527 1.022.867 5.515.223.766.407 1.543.553 2.328.294 1.456.572 2.831 1.39 3.868a.365.365 0 0 1-.285.591Z" fill="#fff"/><path fill-rule="evenodd" clip-rule="evenodd" d="M125.244 47.417c3.182-2.53 4.876-4.573 5.081-6.127.345-2.61 1.881-4.249 3.905-6.34.657-.68.071-3.398-2.256-2.748 2.235-2.157-.971-4.257-2.213-2.908 3.174-3.9 5.385-5.526 4.328-6.634-1.092-1.143-4.144 1.268-6.756 4.15-.438-.178-.851.04-1.239.657-1.101 1.747-2.922 5.072-5.461 9.975" fill="#121212"/><path d="M125.245 47.782a.366.366 0 0 1-.344-.245.365.365 0 0 1 .118-.406c3.091-2.458 4.755-4.44 4.946-5.889.368-2.789 2.054-4.53 4.004-6.547.198-.204.235-.939-.118-1.535-.256-.432-.772-.887-1.778-.606a.363.363 0 0 1-.414-.17.371.371 0 0 1-.045-.233.371.371 0 0 1 .108-.211c.542-.524.757-1.068.621-1.575-.136-.506-.619-.943-1.201-1.087-.213-.052-.748-.132-1.112.264a.366.366 0 0 1-.506.027.362.362 0 0 1-.124-.244.36.36 0 0 1 .08-.262 79.221 79.221 0 0 1 2.35-2.736c1.756-1.978 2.511-2.876 1.997-3.415a.61.61 0 0 0-.487-.177c-1.121.015-3.372 1.711-5.736 4.32a.363.363 0 0 1-.407.093c-.102-.042-.376-.153-.795.513-1.091 1.73-2.923 5.078-5.445 9.949a.367.367 0 0 1-.491.155.368.368 0 0 1-.156-.492c2.533-4.889 4.375-8.254 5.477-10.002.502-.798 1.022-.942 1.429-.873 1.32-1.436 4.239-4.367 6.114-4.392a1.33 1.33 0 0 1 1.023.402c.717.752.191 1.643.019 1.935-.386.654-1.098 1.455-1.998 2.47a100.67 100.67 0 0 0-1.481 1.693c.143.008.284.03.423.064.845.209 1.524.84 1.73 1.606a2.038 2.038 0 0 1-.243 1.567 2.027 2.027 0 0 1 1.673 1.044c.485.818.492 1.924.015 2.417-1.861 1.923-3.468 3.584-3.805 6.134-.22 1.667-1.926 3.749-5.215 6.365a.365.365 0 0 1-.226.078Z" fill="#fff"/><path d="M119.684 39.386a.359.359 0 0 1-.322-.196.365.365 0 0 1 .023-.377l.334-.477.35-.5c.659-1.555 1.45-3.012 2.214-4.423.335-.617.681-1.256 1.01-1.891.262-.498.555-.978.879-1.437a.363.363 0 0 1 .658.137.367.367 0 0 1-.056.274c-.307.434-.585.888-.832 1.358-.335.645-.683 1.287-1.019 1.908-.762 1.405-1.55 2.858-2.198 4.394a.339.339 0 0 1-.037.065l-.374.536-.331.473a.368.368 0 0 1-.299.156Z" fill="#fff"/><path fill-rule="evenodd" clip-rule="evenodd" d="M125.3 36.703c.85-1.338.84-2.715 1.184-3.832.985-3.174 1.322-5.304.783-5.875-.777-.82-1.746 1.139-3.18 3.382-.597.935-1.77 3.327-3.519 7.177" fill="#121212"/><path d="M120.567 37.92a.36.36 0 0 1-.306-.168.361.361 0 0 1-.025-.348c1.772-3.903 2.932-6.266 3.543-7.223.227-.355.441-.7.648-1.035.978-1.58 1.625-2.625 2.369-2.7a.864.864 0 0 1 .734.3c.399.422.761 1.527-.7 6.234-.102.36-.185.725-.249 1.093-.168.87-.358 1.855-.975 2.826a.361.361 0 0 1-.662-.117.365.365 0 0 1 .048-.274c.543-.855.711-1.729.874-2.573.068-.395.158-.786.268-1.171 1.395-4.494 1.016-5.359.867-5.517-.077-.081-.116-.077-.132-.076-.388.04-1.151 1.273-1.824 2.36-.208.336-.423.684-.653 1.044-.585.915-1.761 3.314-3.494 7.131a.37.37 0 0 1-.331.214Z" fill="#fff"/><path fill-rule="evenodd" clip-rule="evenodd" d="M131.976 32.202c-1.78 3.244-3.155 4.583-4.126 4.015-.971-.568-.566-2.312 1.213-5.231" fill="#121212"/><path d="M128.308 36.71c-.226 0-.448-.062-.642-.178a1.34 1.34 0 0 1-.638-.863c-.245-.974.319-2.567 1.724-4.872a.367.367 0 0 1 .369-.177.362.362 0 0 1 .3.279.367.367 0 0 1-.047.278c-1.595 2.615-1.772 3.789-1.64 4.313a.63.63 0 0 0 .299.412.565.565 0 0 0 .465.05c.541-.15 1.528-.953 3.158-3.925a.378.378 0 0 1 .218-.18.362.362 0 0 1 .455.252.366.366 0 0 1-.035.28c-1.427 2.601-2.605 4-3.602 4.277a1.44 1.44 0 0 1-.384.053Z" fill="#fff"/><path fill-rule="evenodd" clip-rule="evenodd" d="M134.314 34.784c-1.906 3.02-3.205 4.173-4.072 3.759-.867-.415-.29-2.488 1.733-6.219" fill="#121212"/><path d="M130.605 38.992c-.18 0-.359-.041-.521-.12a1.003 1.003 0 0 1-.522-.617c-.195-.604-.191-1.893 2.092-6.105a.375.375 0 0 1 .217-.178.36.36 0 0 1 .388.12.36.36 0 0 1 .079.27.384.384 0 0 1-.044.136c-2.086 3.85-2.173 5.118-2.039 5.532a.272.272 0 0 0 .143.183c.378.181 1.35-.048 3.608-3.625a.354.354 0 0 1 .227-.16.363.363 0 0 1 .439.418.373.373 0 0 1-.051.133c-1.727 2.735-2.997 4.013-4.016 4.013Z" fill="#fff"/><path fill-rule="evenodd" clip-rule="evenodd" d="M102.851 71.496 73.606 74.78 60.5 82.687 32.71 71.74l7.081-14.357L58.66 66.17l9.105-12.735a12.135 12.135 0 0 1 6.745-4.67l7.57-2.017 9.008-1.976a12.108 12.108 0 0 1 7.722.858l9.87 4.614 8.926-14.154 14.439 8.374-11.405 19.649a10.925 10.925 0 0 1-6.38 5.004 10.896 10.896 0 0 1-8.063-.778l-2.592-1.34-2.49-1.286-3.741-1.933 3.536 1.877 1.942 5.84Z" fill="#121212"/><path d="M60.5 83.052a.361.361 0 0 1-.134-.025l-27.79-10.949a.364.364 0 0 1-.193-.501l7.081-14.357a.364.364 0 0 1 .48-.169l18.594 8.66 8.93-12.49a12.53 12.53 0 0 1 6.946-4.81l7.57-2.017.017-.004 9.007-1.976a12.539 12.539 0 0 1 7.954.884l9.58 4.478 8.755-13.882a.363.363 0 0 1 .49-.12l14.438 8.373a.37.37 0 0 1 .169.222.376.376 0 0 1-.036.277l-11.405 19.65a11.284 11.284 0 0 1-6.592 5.172 11.255 11.255 0 0 1-8.333-.806l-4.511-2.33 1.678 5.048a.35.35 0 0 1 .016.16.358.358 0 0 1-.169.265.359.359 0 0 1-.151.053l-29.166 3.276L60.687 83a.363.363 0 0 1-.188.052ZM33.211 71.544l27.253 10.738 12.952-7.815a.36.36 0 0 1 .147-.05l28.799-3.234-1.754-5.273-3.408-1.809a.365.365 0 0 1 .338-.647l8.823 4.56a10.528 10.528 0 0 0 7.795.753 10.555 10.555 0 0 0 6.167-4.839l11.221-19.333-13.82-8.014-8.739 13.857a.363.363 0 0 1-.461.135l-9.87-4.613a11.813 11.813 0 0 0-7.49-.833l-9 1.974-7.564 2.016a11.798 11.798 0 0 0-6.542 4.53l-9.105 12.735a.364.364 0 0 1-.45.118L39.96 57.863l-6.748 13.68Z" fill="#fff"/><path fill-rule="evenodd" clip-rule="evenodd" d="m69.112 97.528-6.09 1.436-25.487 25.384-14.803-14.619 28.905-28.351a10.552 10.552 0 0 1 5.579-2.734l14.69-3.013" fill="#121212"/><path d="M37.535 124.713a.363.363 0 0 1-.255-.105l-14.802-14.619a.372.372 0 0 1-.109-.261.368.368 0 0 1 .11-.26l28.904-28.351a10.88 10.88 0 0 1 5.769-2.832l14.683-3.011a.364.364 0 1 1 .146.715L57.29 79l-.016.003a10.148 10.148 0 0 0-5.387 2.64L23.253 109.73l14.281 14.105 25.232-25.13a.363.363 0 0 1 .174-.096l6.09-1.435a.363.363 0 0 1 .432.273.366.366 0 0 1-.265.437l-5.99 1.412-25.415 25.311a.363.363 0 0 1-.257.106Z" fill="#fff"/><path fill-rule="evenodd" clip-rule="evenodd" d="m100.788 65.656 4.75 12.987a10.115 10.115 0 0 1-4.145 12.055 10.06 10.06 0 0 1-4.308 1.468l-6.795.68 2.735 33.634-21.159-.052-3.881-42.51a9.017 9.017 0 0 1 2.012-6.545 8.973 8.973 0 0 1 6.024-3.231l23.582-2.398" fill="#121212"/><path d="m93.025 126.846-21.16-.053a.363.363 0 0 1-.36-.331l-3.883-42.51a9.412 9.412 0 0 1 2.103-6.803 9.367 9.367 0 0 1 6.26-3.37l23.581-2.398a.363.363 0 0 1 .391.327.366.366 0 0 1-.317.4l-23.582 2.397a8.637 8.637 0 0 0-5.771 3.108 8.679 8.679 0 0 0-1.94 6.272l3.852 42.179 20.431.051-2.702-33.238a.365.365 0 0 1 .326-.393l6.795-.681a9.693 9.693 0 0 0 4.152-1.414 9.732 9.732 0 0 0 4.537-7.258 9.752 9.752 0 0 0-.541-4.362l-4.751-12.987a.368.368 0 0 1 .217-.467.365.365 0 0 1 .467.216l4.75 12.986a10.477 10.477 0 0 1-4.295 12.491 10.423 10.423 0 0 1-4.464 1.52l-6.439.647 2.706 33.276a.37.37 0 0 1-.095.277.362.362 0 0 1-.268.118ZM105.827 55.33a.365.365 0 0 1-.311-.553l2.851-4.723a.364.364 0 1 1 .623.378l-2.852 4.723a.364.364 0 0 1-.311.176Z" fill="#fff"/><path fill-rule="evenodd" clip-rule="evenodd" d="M88.574 34.344a6.095 6.095 0 0 1 1.65 5.102 6.1 6.1 0 0 1-3.013 4.432l.24 3.669a4.153 4.153 0 0 1-1.005 2.98 4.134 4.134 0 0 1-5.791.451 4.15 4.15 0 0 1-1.452-2.79l-.652-7.347-1.393-8.152v-1.946l4.247-2.068 4.733.486" fill="#121212"/><path d="M83.316 52.324a4.464 4.464 0 0 1-3.038-1.174 4.485 4.485 0 0 1-1.437-2.93l-.65-7.332-1.39-8.137a.386.386 0 0 1-.006-.062v-1.946a.366.366 0 0 1 .205-.329l4.247-2.068a.358.358 0 0 1 .196-.034l4.733.486a.364.364 0 0 1 .288.538.365.365 0 0 1-.362.188l-4.63-.476-3.95 1.923v1.687l1.388 8.121.004.03.652 7.347c.08.94.51 1.817 1.205 2.454a3.741 3.741 0 0 0 2.794.976 3.78 3.78 0 0 0 2.588-1.279c.66-.752.996-1.735.936-2.735l-.24-3.67a.365.365 0 0 1 .183-.34 5.719 5.719 0 0 0 2.833-4.166 5.741 5.741 0 0 0-1.55-4.796.365.365 0 0 1 .52-.51 6.46 6.46 0 0 1 1.766 5.293 6.466 6.466 0 0 1-3.01 4.696l.224 3.445A4.531 4.531 0 0 1 86.7 50.79a4.51 4.51 0 0 1-3.384 1.535Z" fill="#fff"/><path fill-rule="evenodd" clip-rule="evenodd" d="M77.518 33.893a5.545 5.545 0 0 1 1.745-3.868 5.519 5.519 0 0 1 3.966-1.49 5.51 5.51 0 0 1 3.852 1.764 5.536 5.536 0 0 1 1.473 3.98" fill="#121212"/><path d="M88.553 34.644h-.013a.364.364 0 0 1-.35-.377 5.184 5.184 0 0 0-1.379-3.713 5.159 5.159 0 0 0-3.596-1.645 5.144 5.144 0 0 0-3.701 1.39 5.17 5.17 0 0 0-1.633 3.607.368.368 0 0 1-.237.33.363.363 0 0 1-.491-.355 5.905 5.905 0 0 1 1.876-4.092 5.877 5.877 0 0 1 8.3.29 5.909 5.909 0 0 1 1.587 4.214.365.365 0 0 1-.363.351Z" fill="#fff"/><path d="M85.434 35.695a.364.364 0 0 1-.314-.552.365.365 0 0 1 .194-.158l1.134-.394-1.71-2.177a.366.366 0 0 1 .33-.588c.095.011.183.06.242.136l2.027 2.581a.365.365 0 0 1-.167.571l-1.617.56a.368.368 0 0 1-.12.02ZM83.339 34.586a.667.667 0 0 0 .383-.86.664.664 0 1 0-1.242.477.664.664 0 0 0 .859.383ZM87.923 33.233a.667.667 0 0 0 .383-.86.664.664 0 0 0-.859-.382.667.667 0 0 0 .476 1.242Z" fill="#fff"/><path d="M79.016 35.886c.084.041.328.072.734.092l-.935-4.49 5.04-1.57a4.36 4.36 0 0 0 2.903-.194 4.45 4.45 0 0 0 2.66-3.412 4.47 4.47 0 0 0-1.483-4.067 4.445 4.445 0 0 0-4.227-.889 4.447 4.447 0 0 0-2.988 3.127 3.949 3.949 0 0 0-4.1 1.077 3.972 3.972 0 0 0-.778 4.177c-.49.157-2.061 1.849-.924 5.823.067.236.149.467.245.693.872-.472 2.326-1.127 3.853-.367Z" fill="#54CA77"/><path fill-rule="evenodd" clip-rule="evenodd" d="M79.338 35.671a3.332 3.332 0 0 0-3.4-.916 3.334 3.334 0 0 0-2.324 2.65 3.35 3.35 0 0 0 1.342 3.263 3.33 3.33 0 0 0 3.512.239 3.01 3.01 0 0 0 .605-.42" fill="#121212"/><path d="M76.9 41.668a3.692 3.692 0 0 1-2.345-.84 3.66 3.66 0 0 1-.909-1.119 3.72 3.72 0 0 1 1.12-4.74 3.697 3.697 0 0 1 4.838.452.366.366 0 0 1-.275.615.364.364 0 0 1-.254-.114 2.973 2.973 0 0 0-5.045 1.373 2.99 2.99 0 0 0 .258 2.072 2.963 2.963 0 0 0 1.753 1.443 2.95 2.95 0 0 0 2.79-.594.365.365 0 1 1 .486.542 3.384 3.384 0 0 1-.677.47 3.697 3.697 0 0 1-1.74.44Z" fill="#fff"/><path d="M75.93 39.114a.363.363 0 0 1-.373-.355.365.365 0 0 1 .354-.375l1.307-.07-1.705-1.34a.365.365 0 0 1 .45-.574l2.467 1.94a.365.365 0 0 1-.205.651l-2.275.122h-.02ZM86.282 38.094c-.326 0-.65-.058-.957-.17a.363.363 0 0 1-.217-.468.366.366 0 0 1 .467-.218 2.034 2.034 0 0 0 2.483-.919.363.363 0 1 1 .634.358 2.767 2.767 0 0 1-2.41 1.417ZM83.713 55.468a7.584 7.584 0 0 1-5.182-2.05 7.62 7.62 0 0 1-2.393-5.041.365.365 0 0 1 .602-.3.365.365 0 0 1 .124.25 6.903 6.903 0 0 0 2.78 5.07 6.866 6.866 0 0 0 5.654 1.16 6.867 6.867 0 0 0 4.542-3.57 6.904 6.904 0 0 0 .227-5.782.366.366 0 0 1 .475-.477c.09.037.16.108.198.197a7.635 7.635 0 0 1-.699 7.157 7.604 7.604 0 0 1-6.328 3.385ZM73.606 74.78a.364.364 0 0 1-.364-.365V62.25a.365.365 0 0 1 .364-.365.364.364 0 0 1 .364.365v12.165a.366.366 0 0 1-.364.365Z" fill="#fff"/></g><path d="M211.992 138.335H1.113c-.221 0-.39-.182-.39-.421 0-.238.169-.421.39-.421h210.879c.221 0 .39.183.39.421 0 .239-.169.421-.39.421Z" fill="#fff"/><path d="M173.713 87.84c.181.167.181.436 0 .587l-4.682 4.682c-.151.18-.42.18-.587 0l-2.411-2.412a.408.408 0 0 1 0-.587.428.428 0 0 1 .602 0l2.111 2.112 4.38-4.382a.409.409 0 0 1 .587 0Z" fill="#54CA77"/><rect x="142.828" y=".5" width="34.257" height="34.257" rx="6.228" fill="#2F2F2F"/><g clip-path="url(#e)"><path d="M163.921 15.876a.65.65 0 0 0-.657.633v1.12a3.508 3.508 0 0 1-3.854 3.486c-1.817-.178-3.153-1.814-3.153-3.646v-.96a.651.651 0 0 0-.657-.633c-.362 0-.657.293-.657.633v.88c0 2.453 1.752 4.642 4.161 4.973v.96h-1.339a.645.645 0 0 0-.632.632c0 .339.293.681.632.681h3.942a.661.661 0 0 0 .681-.657.655.655 0 0 0-.657-.657h-1.313v-.924a4.82 4.82 0 0 0 4.16-4.769v-1.12a.65.65 0 0 0-.657-.632Zm-4.16 4.38a2.628 2.628 0 0 0 2.627-2.628v-4.38a2.644 2.644 0 0 0-2.627-2.627 2.628 2.628 0 0 0-2.628 2.628v4.38a2.628 2.628 0 0 0 2.628 2.627Zm-1.314-7.007a1.314 1.314 0 0 1 2.628 0v4.38a1.314 1.314 0 0 1-2.628 0v-4.38Z" fill="#54CA77"/></g><defs><clipPath id="a"><path fill="#fff" transform="translate(64.42 57.738)" d="M0 0h46.54v80.069H0z"/></clipPath><clipPath id="b"><path fill="#fff" transform="translate(63.275 119.981)" d="M0 0h6.739v18.115H0z"/></clipPath><clipPath id="c"><path fill="#fff" transform="translate(51.818 126.243)" d="M0 0h9.21v11.406H0z"/></clipPath><clipPath id="d"><path fill="#fff" transform="translate(1.041 21.164)" d="M0 0h133.805v117.239H0z"/></clipPath><clipPath id="e"><path fill="#fff" transform="translate(154.506 10.621)" d="M0 0h10.511v14.014H0z"/></clipPath></defs></svg>