<svg width="213" height="139" fill="none" xmlns="http://www.w3.org/2000/svg"><g clip-path="url(#a)"><path d="M70.659 138.056a.377.377 0 0 1-.37-.479l11.907-44.564a.381.381 0 0 1 .603-.205.382.382 0 0 1 .137.401l-11.908 44.564a.38.38 0 0 1-.37.283Zm37.183 0a.385.385 0 0 1-.378-.324l-6.82-44.564a.38.38 0 0 1 .321-.429.386.386 0 0 1 .436.314l6.82 44.565a.37.37 0 0 1-.088.306.386.386 0 0 1-.291.132Z" fill="#0F1928"/><path d="M80.67 93.111s6.161-28.901 6.302-29.675c.44-2.422 1.363-4.738 3.831-5.226.308-.06.62-.091.934-.091h13.997c.314 0 .627.03.935.091 2.598.514 4.286 3.027 4.009 5.597l-5.912 29.534" fill="#fff"/><path d="M104.766 93.723a.384.384 0 0 1-.376-.456l5.908-29.517c.254-2.437-1.371-4.704-3.705-5.166a4.427 4.427 0 0 0-.859-.084H91.737c-.288 0-.578.028-.86.084-1.864.369-2.986 1.932-3.529 4.92-.14.77-6.053 28.506-6.304 29.686a.381.381 0 0 1-.453.29.383.383 0 0 1-.296-.448c.061-.289 6.161-28.904 6.3-29.664.381-2.1 1.225-4.957 4.133-5.532.332-.065.67-.098 1.009-.098h13.997c.337 0 .677.033 1.008.099 2.725.538 4.621 3.179 4.316 6.01a.396.396 0 0 1-.005.035l-5.912 29.534a.38.38 0 0 1-.375.307Z" fill="#0F1928"/><path d="m66.42 92.73 38.747-.004v.508c0 .988-.805 1.79-1.797 1.79H64.55l1.87-2.294Z" fill="#0F1928"/></g><g clip-path="url(#b)"><path d="M70.017 149.502a.352.352 0 0 1-.348-.306l-3.459-26.012a.351.351 0 0 1 .698-.093l3.459 26.012a.353.353 0 0 1-.35.399Z" fill="#0F1928"/><path d="M66.56 126.295a3.155 3.155 0 0 0 3.153-3.157 3.155 3.155 0 0 0-3.153-3.157 3.156 3.156 0 0 0-3.154 3.157 3.156 3.156 0 0 0 3.154 3.157Z" fill="#D1F5DB"/></g><g clip-path="url(#c)"><path d="M59.055 130.056c.976 0 1.768-.779 1.768-1.74s-.792-1.74-1.768-1.74-1.768.779-1.768 1.74.792 1.74 1.768 1.74Z" fill="#fff"/><path d="M59.055 130.389c-.417 0-.824-.122-1.17-.35a2.074 2.074 0 0 1-.776-.93 2.04 2.04 0 0 1-.12-1.197c.082-.403.283-.772.577-1.062a2.135 2.135 0 0 1 2.295-.449c.384.157.713.423.944.763.232.341.355.742.355 1.152a2.06 2.06 0 0 1-.617 1.465c-.395.389-.93.607-1.488.608Zm0-3.481c-.283 0-.56.083-.795.237a1.417 1.417 0 0 0-.526.632 1.389 1.389 0 0 0 .31 1.534 1.443 1.443 0 0 0 2.2-.213 1.392 1.392 0 0 0-.179-1.777 1.445 1.445 0 0 0-1.01-.413Z" fill="#0F1928"/><path d="M53.683 131.774c.771 0 1.397-.615 1.397-1.374 0-.759-.626-1.375-1.397-1.375-.77 0-1.396.616-1.396 1.375s.625 1.374 1.396 1.374Z" fill="#fff"/><path d="M53.683 132.107c-.343 0-.678-.1-.963-.288a1.715 1.715 0 0 1-.639-.766 1.682 1.682 0 0 1 .376-1.86 1.76 1.76 0 0 1 1.89-.37c.317.129.587.348.778.628a1.69 1.69 0 0 1-.216 2.155c-.325.32-.766.5-1.226.501Zm0-2.749a1.051 1.051 0 0 0-.978.643 1.026 1.026 0 0 0 .23 1.136 1.075 1.075 0 0 0 1.153.225 1.05 1.05 0 0 0 .475-.383 1.033 1.033 0 0 0-.132-1.316 1.068 1.068 0 0 0-.748-.305Zm2.759 8.291a.343.343 0 0 1-.27-.132.33.33 0 0 1-.055-.292l2.612-9.001a.335.335 0 0 1 .286-.241.346.346 0 0 1 .25.07.324.324 0 0 1 .125.224.326.326 0 0 1-.011.13l-2.613 9.001a.335.335 0 0 1-.324.241Z" fill="#0F1928"/><path d="M56.442 137.649a.339.339 0 0 1-.314-.211l-2.759-6.917a.327.327 0 0 1 .005-.254.335.335 0 0 1 .186-.177.34.34 0 0 1 .438.188l2.759 6.916a.33.33 0 0 1-.157.416.347.347 0 0 1-.158.039Z" fill="#0F1928"/></g><g clip-path="url(#d)"><path d="M87.995 38.285a2.977 2.977 0 0 0 2.973-2.98 2.977 2.977 0 0 0-2.973-2.98 2.977 2.977 0 0 0-2.974 2.98 2.977 2.977 0 0 0 2.974 2.98Z" fill="#fff"/><path d="M87.995 38.65a3.331 3.331 0 0 1-3.083-2.065 3.354 3.354 0 0 1 .724-3.646 3.333 3.333 0 0 1 5.134.507 3.35 3.35 0 0 1-.416 4.223 3.337 3.337 0 0 1-2.359.981Zm0-5.96a2.605 2.605 0 0 0-2.41 1.614 2.622 2.622 0 0 0 .566 2.85 2.606 2.606 0 0 0 4.453-1.85c0-.693-.276-1.357-.765-1.848a2.609 2.609 0 0 0-1.844-.767Z" fill="#0F1928"/><path fill-rule="evenodd" clip-rule="evenodd" d="M26.564 113.491c-2.176 1.936-7.97 4.569-10.926 3.835-3.631-.893-6.59-1.885-6.59-1.885a5.982 5.982 0 0 0-7.513 2.02l15.818 13.095 6.94-.694-3.212 3.811 4.813 3.994 11.713-13.349" fill="#fff"/><path d="M25.895 138.032a.359.359 0 0 1-.232-.084l-4.813-3.993a.375.375 0 0 1-.13-.249.361.361 0 0 1 .084-.268l2.631-3.123-6.045.604a.359.359 0 0 1-.268-.081L1.304 117.743a.368.368 0 0 1-.068-.489 6.331 6.331 0 0 1 7.95-2.153 93.49 93.49 0 0 0 6.54 1.87c2.753.685 8.381-1.782 10.597-3.753a.352.352 0 0 1 .264-.093.367.367 0 0 1 .252.122.369.369 0 0 1 .09.265.366.366 0 0 1-.123.252c-2.32 2.064-8.199 4.675-11.255 3.916a93.572 93.572 0 0 1-6.617-1.893.305.305 0 0 1-.04-.016 5.597 5.597 0 0 0-6.86 1.628l15.435 12.779 6.789-.679a.368.368 0 0 1 .209.041.371.371 0 0 1 .189.361.36.36 0 0 1-.084.196l-2.973 3.53 4.257 3.533 11.478-13.083a.361.361 0 0 1 .514-.033.365.365 0 0 1 .033.515l-11.713 13.349a.37.37 0 0 1-.273.124Z" fill="#0F1928"/><path fill-rule="evenodd" clip-rule="evenodd" d="M73.287 126.26c-.743 2.374-2.07 4.433-4.068 5.137-3.596 1.261-4.647 3.52-4.438 6.419h17.692l3.762-5.96v5.96h5.46V126.26H73.287Z" fill="#fff"/><path d="M91.696 138.182h-5.46a.364.364 0 0 1-.364-.365v-4.701l-3.09 4.896a.368.368 0 0 1-.308.171H64.782a.363.363 0 0 1-.363-.339c-.247-3.426 1.24-5.584 4.681-6.79 1.672-.589 3.036-2.331 3.84-4.903a.364.364 0 0 1 .348-.255h18.409a.364.364 0 0 1 .364.365v11.557a.365.365 0 0 1-.365.364Zm-5.096-.73h4.732v-10.827h-17.78c-.885 2.658-2.375 4.47-4.21 5.117-3.01 1.055-4.32 2.823-4.215 5.71h17.147l3.655-5.79a.363.363 0 0 1 .598-.025c.047.063.073.14.073.219v5.596Z" fill="#0F1928"/><path fill-rule="evenodd" clip-rule="evenodd" d="M34.596 69.192c-3.183-2.53-4.876-4.573-5.081-6.127-.345-2.61-.187-4.535-3.905-6.34-1.678-.81-4.308-1.764-3.48-3.342.577-1.082 3.702-.088 6.029.562-2.644-2.265-6.116-5.233-5.163-6.49.953-1.259 3.673.657 7.082 3.614-3.173-3.9-5.385-5.525-4.328-6.634 1.093-1.142 4.145 1.268 6.756 4.15.439-.178.852.041 1.24.657 1.101 1.747 2.921 5.072 5.46 9.975" fill="#fff"/><path d="M34.597 69.556a.361.361 0 0 1-.226-.078c-3.29-2.616-4.995-4.698-5.215-6.365-.034-.258-.064-.51-.092-.755-.254-2.186-.438-3.764-3.611-5.305-.195-.094-.404-.19-.619-.29-1.31-.605-2.795-1.292-3.146-2.33a1.505 1.505 0 0 1 .122-1.22c.581-1.092 2.656-.669 4.87-.063-2.588-2.257-4.974-4.596-3.972-5.917a1.318 1.318 0 0 1 .949-.527c.803-.084 1.896.385 3.52 1.554-.762-.862-1.363-1.56-1.707-2.141-.172-.293-.698-1.184.019-1.936a1.34 1.34 0 0 1 1.023-.402c1.875.025 4.794 2.956 6.114 4.393.407-.07.927.074 1.43.873 1.101 1.747 2.944 5.113 5.476 10.002a.365.365 0 0 1-.433.516.364.364 0 0 1-.213-.18c-2.523-4.871-4.355-8.218-5.446-9.949-.42-.665-.693-.555-.795-.513a.364.364 0 0 1-.406-.093c-2.364-2.609-4.616-4.304-5.737-4.32a.606.606 0 0 0-.487.178c-.514.539.24 1.436 1.997 3.414a80.04 80.04 0 0 1 2.35 2.737.366.366 0 0 1-.271.595.364.364 0 0 1-.25-.089c-2.01-1.744-4.83-4.047-6.108-3.913a.6.6 0 0 0-.446.243c-.165.22-.23.82 1.202 2.39 1.057 1.161 2.558 2.447 3.883 3.581l.026.022a.365.365 0 0 1-.335.63l-.575-.163c-1.736-.492-4.642-1.316-5.035-.58a.78.78 0 0 0-.075.644c.25.741 1.643 1.385 2.761 1.901.219.102.432.2.631.296 3.534 1.715 3.758 3.644 4.018 5.877.028.242.057.49.09.745.192 1.45 1.856 3.43 4.947 5.888a.365.365 0 0 1-.227.651Z" fill="#0F1928"/><path d="M40.157 61.161a.363.363 0 0 1-.3-.157c-.025-.038-.188-.27-.35-.502l-.354-.506a.358.358 0 0 1-.037-.065c-.648-1.535-1.436-2.989-2.198-4.394-.337-.62-.685-1.262-1.017-1.904a12.334 12.334 0 0 0-.834-1.362.364.364 0 0 1 .602-.411c.324.46.619.942.88 1.44.327.632.674 1.27 1.008 1.888.764 1.41 1.555 2.868 2.214 4.423l.33.471.354.506a.366.366 0 0 1-.299.573h.001Z" fill="#0F1928"/><path fill-rule="evenodd" clip-rule="evenodd" d="M35.363 60.96c-1.309-1.657-1.297-4.008-2.005-6.313-.985-3.174-1.323-5.304-.784-5.875.777-.82 1.872 1.293 3.059 3.625.473.93 1.687 3.16 3.64 6.69" fill="#fff"/><path d="M35.364 61.326a.362.362 0 0 1-.286-.139c-.927-1.174-1.222-2.633-1.533-4.176-.15-.74-.304-1.506-.535-2.257-1.46-4.705-1.099-5.811-.7-6.233a.842.842 0 0 1 .755-.286c.864.125 1.669 1.593 2.892 3.995.47.923 1.693 3.17 3.635 6.68a.366.366 0 0 1-.143.495.363.363 0 0 1-.494-.141c-1.946-3.517-3.172-5.772-3.646-6.702-.715-1.403-1.795-3.524-2.348-3.605-.019-.002-.053-.007-.122.066-.149.158-.527 1.022.867 5.515.223.766.407 1.543.553 2.328.294 1.456.571 2.831 1.39 3.868a.365.365 0 0 1-.285.591Z" fill="#0F1928"/><path fill-rule="evenodd" clip-rule="evenodd" d="M125.375 47.417c3.182-2.53 4.876-4.573 5.081-6.127.344-2.61 1.881-4.249 3.905-6.34.657-.68.071-3.398-2.256-2.748 2.235-2.157-.971-4.257-2.213-2.908 3.174-3.9 5.385-5.526 4.328-6.634-1.092-1.143-4.145 1.268-6.756 4.15-.438-.178-.852.04-1.24.657-1.101 1.747-2.921 5.072-5.46 9.975" fill="#fff"/><path d="M125.376 47.782a.366.366 0 0 1-.226-.651c3.09-2.458 4.755-4.44 4.946-5.889.368-2.789 2.053-4.53 4.004-6.547.198-.204.235-.939-.118-1.535-.256-.432-.772-.887-1.778-.606a.366.366 0 0 1-.459-.403.371.371 0 0 1 .108-.211c.542-.524.757-1.068.621-1.575-.136-.506-.619-.943-1.201-1.087-.213-.052-.748-.132-1.113.264a.361.361 0 0 1-.505.027.366.366 0 0 1-.044-.506 79.221 79.221 0 0 1 2.35-2.736c1.756-1.978 2.511-2.876 1.997-3.415a.61.61 0 0 0-.487-.177c-1.121.015-3.373 1.711-5.737 4.32a.36.36 0 0 1-.406.093c-.102-.042-.376-.153-.795.513-1.091 1.73-2.923 5.078-5.445 9.949a.367.367 0 0 1-.491.155.364.364 0 0 1-.156-.492c2.532-4.889 4.375-8.254 5.476-10.002.503-.798 1.023-.942 1.43-.873 1.32-1.436 4.239-4.367 6.114-4.392a1.336 1.336 0 0 1 1.023.402c.717.752.191 1.643.019 1.935-.387.654-1.098 1.455-1.998 2.47a100.67 100.67 0 0 0-1.481 1.693c.143.008.284.03.423.064.845.209 1.524.84 1.73 1.606a2.026 2.026 0 0 1-.243 1.567 2.03 2.03 0 0 1 1.673 1.044c.485.818.492 1.924.015 2.417-1.861 1.923-3.468 3.584-3.805 6.134-.22 1.667-1.926 3.749-5.216 6.365a.36.36 0 0 1-.225.078Z" fill="#0F1928"/><path d="M119.815 39.386a.365.365 0 0 1-.299-.573l.334-.477.35-.5c.659-1.555 1.449-3.012 2.214-4.423.335-.617.681-1.256 1.01-1.891.262-.498.555-.978.879-1.437a.363.363 0 0 1 .658.137.367.367 0 0 1-.056.274c-.307.434-.585.888-.833 1.358-.334.645-.682 1.287-1.018 1.908-.762 1.405-1.551 2.858-2.198 4.394a.401.401 0 0 1-.037.065l-.374.536-.331.473a.371.371 0 0 1-.299.156Z" fill="#0F1928"/><path fill-rule="evenodd" clip-rule="evenodd" d="M125.431 36.703c.85-1.338.84-2.715 1.184-3.832.985-3.174 1.322-5.304.783-5.875-.777-.82-1.746 1.139-3.18 3.382-.597.935-1.77 3.327-3.519 7.177" fill="#fff"/><path d="M120.698 37.92a.36.36 0 0 1-.306-.168.361.361 0 0 1-.025-.348c1.772-3.903 2.932-6.266 3.543-7.223.227-.355.441-.7.648-1.035.978-1.58 1.624-2.625 2.369-2.7a.864.864 0 0 1 .734.3c.399.422.76 1.527-.7 6.234-.102.36-.185.725-.249 1.093-.168.87-.358 1.855-.975 2.826a.362.362 0 0 1-.662-.116.365.365 0 0 1 .048-.275c.543-.855.711-1.729.874-2.573.068-.395.158-.786.268-1.171 1.395-4.494 1.016-5.359.867-5.517-.077-.081-.116-.077-.132-.076-.388.04-1.151 1.273-1.824 2.36-.208.336-.424.684-.653 1.044-.585.915-1.761 3.314-3.495 7.131a.36.36 0 0 1-.33.214Z" fill="#0F1928"/><path fill-rule="evenodd" clip-rule="evenodd" d="M132.107 32.202c-1.78 3.244-3.155 4.583-4.126 4.015-.971-.568-.567-2.312 1.213-5.231" fill="#fff"/><path d="M128.439 36.71c-.226 0-.448-.062-.642-.178a1.34 1.34 0 0 1-.638-.863c-.245-.974.319-2.567 1.724-4.872a.367.367 0 0 1 .369-.177.362.362 0 0 1 .3.279.367.367 0 0 1-.048.278c-1.594 2.615-1.771 3.789-1.639 4.313a.63.63 0 0 0 .299.412.565.565 0 0 0 .465.05c.541-.15 1.528-.953 3.158-3.925a.378.378 0 0 1 .218-.18.362.362 0 0 1 .455.252.366.366 0 0 1-.035.28c-1.427 2.601-2.605 4-3.602 4.277a1.44 1.44 0 0 1-.384.053Z" fill="#0F1928"/><path fill-rule="evenodd" clip-rule="evenodd" d="M134.445 34.784c-1.907 3.02-3.205 4.173-4.072 3.759-.867-.415-.29-2.488 1.733-6.219" fill="#fff"/><path d="M130.736 38.992a1.19 1.19 0 0 1-.521-.12 1.003 1.003 0 0 1-.522-.617c-.195-.604-.191-1.893 2.092-6.105a.375.375 0 0 1 .217-.178.36.36 0 0 1 .388.12.36.36 0 0 1 .078.27.364.364 0 0 1-.043.136c-2.086 3.85-2.173 5.118-2.039 5.532a.26.26 0 0 0 .051.108.264.264 0 0 0 .092.075c.378.181 1.35-.048 3.607-3.625a.372.372 0 0 1 .228-.16.363.363 0 0 1 .439.418.373.373 0 0 1-.051.133c-1.727 2.735-2.997 4.013-4.016 4.013Z" fill="#0F1928"/><path fill-rule="evenodd" clip-rule="evenodd" d="M102.982 71.496 73.737 74.78 60.63 82.687 32.84 71.74l7.081-14.357L58.79 66.17l9.105-12.735a12.135 12.135 0 0 1 6.744-4.67l7.571-2.017 9.008-1.976a12.108 12.108 0 0 1 7.722.858l9.87 4.614 8.926-14.154 14.438 8.374-11.404 19.649a10.925 10.925 0 0 1-6.38 5.004 10.896 10.896 0 0 1-8.063-.778l-2.592-1.34-2.49-1.286-3.742-1.933 3.537 1.877 1.942 5.84Z" fill="#fff"/><path d="M60.63 83.052a.361.361 0 0 1-.134-.025L32.707 72.078a.365.365 0 0 1-.193-.501l7.081-14.357a.365.365 0 0 1 .48-.169l18.594 8.66 8.929-12.49a12.529 12.529 0 0 1 6.947-4.81l7.57-2.017.017-.004 9.007-1.976a12.539 12.539 0 0 1 7.954.884l9.58 4.478 8.755-13.882a.363.363 0 0 1 .49-.12l14.438 8.373a.37.37 0 0 1 .169.222.359.359 0 0 1-.037.276l-11.404 19.65a11.284 11.284 0 0 1-6.592 5.173 11.255 11.255 0 0 1-8.333-.806l-4.511-2.33 1.678 5.048a.363.363 0 0 1-.304.478l-29.167 3.276L60.818 83a.363.363 0 0 1-.188.052ZM33.343 71.544l27.253 10.738 12.952-7.815a.36.36 0 0 1 .147-.05l28.798-3.234-1.753-5.273-3.408-1.809a.365.365 0 0 1 .337-.647l8.824 4.56a10.527 10.527 0 0 0 7.795.753 10.555 10.555 0 0 0 6.167-4.839l11.22-19.333-13.819-8.014-8.739 13.857a.366.366 0 0 1-.461.135l-9.87-4.613a11.812 11.812 0 0 0-7.49-.833l-9 1.974-7.564 2.016a11.798 11.798 0 0 0-6.542 4.53l-9.105 12.735a.364.364 0 0 1-.45.118l-18.544-8.637-6.748 13.68Z" fill="#0F1928"/><path fill-rule="evenodd" clip-rule="evenodd" d="m69.243 97.528-6.09 1.436-25.488 25.384-14.802-14.619 28.905-28.351a10.552 10.552 0 0 1 5.579-2.734l14.69-3.013" fill="#fff"/><path d="M37.666 124.713a.363.363 0 0 1-.255-.105L22.61 109.989a.37.37 0 0 1-.109-.261.368.368 0 0 1 .11-.26l28.904-28.351a10.88 10.88 0 0 1 5.769-2.832l14.683-3.011a.364.364 0 1 1 .146.715L57.42 79l-.017.003a10.148 10.148 0 0 0-5.387 2.64L23.384 109.73l14.281 14.105 25.232-25.13a.364.364 0 0 1 .174-.096l6.09-1.435a.363.363 0 0 1 .432.273.366.366 0 0 1-.266.437l-5.99 1.412-25.414 25.311a.363.363 0 0 1-.257.106Z" fill="#0F1928"/><path fill-rule="evenodd" clip-rule="evenodd" d="m100.919 65.656 4.75 12.987a10.115 10.115 0 0 1-4.146 12.055 10.053 10.053 0 0 1-4.307 1.468l-6.795.68 2.735 33.634-21.159-.052-3.882-42.51a9.017 9.017 0 0 1 2.013-6.545 8.973 8.973 0 0 1 6.024-3.231l23.582-2.398" fill="#fff"/><path d="M93.156 126.846h-.001l-21.158-.053a.363.363 0 0 1-.362-.331l-3.882-42.51a9.413 9.413 0 0 1 2.103-6.803 9.367 9.367 0 0 1 6.26-3.37l23.58-2.398a.363.363 0 0 1 .392.327.365.365 0 0 1-.317.4l-23.582 2.397a8.637 8.637 0 0 0-5.772 3.108 8.68 8.68 0 0 0-1.939 6.272l3.852 42.179 20.431.051-2.703-33.238a.365.365 0 0 1 .327-.393l6.795-.681a9.692 9.692 0 0 0 7.259-4.516 9.742 9.742 0 0 0 .889-8.518l-4.751-12.987a.363.363 0 0 1 .013-.278.362.362 0 0 1 .482-.178c.087.04.155.114.189.205l4.75 12.986a10.479 10.479 0 0 1-4.295 12.491 10.424 10.424 0 0 1-4.464 1.52l-6.439.647 2.706 33.276a.369.369 0 0 1-.095.277.362.362 0 0 1-.268.118ZM105.957 55.33a.364.364 0 0 1-.311-.553l2.852-4.723a.364.364 0 1 1 .623.378l-2.852 4.723a.359.359 0 0 1-.312.176Z" fill="#0F1928"/><path fill-rule="evenodd" clip-rule="evenodd" d="M88.705 34.344a6.096 6.096 0 0 1 1.65 5.102 6.1 6.1 0 0 1-3.013 4.432l.24 3.669a4.154 4.154 0 0 1-1.005 2.98 4.133 4.133 0 0 1-7.243-2.339l-.652-7.347-1.393-8.152v-1.946l4.247-2.068 4.733.486" fill="#fff"/><path d="M83.447 52.324a4.464 4.464 0 0 1-3.038-1.174 4.485 4.485 0 0 1-1.437-2.93l-.65-7.332-1.391-8.137a.375.375 0 0 1-.005-.062v-1.946a.364.364 0 0 1 .205-.329l4.247-2.068a.357.357 0 0 1 .196-.034l4.733.486a.364.364 0 0 1 .196.649.365.365 0 0 1-.27.077l-4.63-.476-3.95 1.923v1.687l1.388 8.121.004.03.652 7.347c.08.94.51 1.817 1.205 2.454a3.741 3.741 0 0 0 2.794.976 3.78 3.78 0 0 0 2.588-1.279c.66-.752.996-1.735.936-2.735l-.24-3.67a.365.365 0 0 1 .183-.34 5.718 5.718 0 0 0 2.833-4.166 5.74 5.74 0 0 0-1.55-4.796.365.365 0 0 1 .265-.617c.095 0 .187.039.255.107a6.46 6.46 0 0 1 1.766 5.293 6.469 6.469 0 0 1-3.01 4.696l.224 3.445a4.531 4.531 0 0 1-1.115 3.265 4.51 4.51 0 0 1-3.384 1.535Z" fill="#0F1928"/><path fill-rule="evenodd" clip-rule="evenodd" d="M77.648 33.893a5.547 5.547 0 0 1 1.746-3.868 5.519 5.519 0 0 1 3.966-1.49 5.51 5.51 0 0 1 3.852 1.764 5.537 5.537 0 0 1 1.472 3.98" fill="#fff"/><path d="M88.684 34.644h-.013a.363.363 0 0 1-.351-.377 5.18 5.18 0 0 0-1.378-3.713 5.159 5.159 0 0 0-3.596-1.645 5.143 5.143 0 0 0-3.701 1.39 5.17 5.17 0 0 0-1.633 3.607.366.366 0 0 1-.516.32.364.364 0 0 1-.213-.345 5.906 5.906 0 0 1 1.877-4.092 5.877 5.877 0 0 1 8.3.29 5.909 5.909 0 0 1 1.587 4.214.366.366 0 0 1-.363.351Z" fill="#0F1928"/><path d="M85.564 35.695a.364.364 0 0 1-.313-.552.365.365 0 0 1 .194-.158l1.134-.394-1.71-2.177a.366.366 0 0 1 .33-.588c.095.011.182.06.242.136l2.027 2.581a.365.365 0 0 1-.167.571l-1.617.56a.368.368 0 0 1-.12.02ZM83.47 34.586a.667.667 0 0 0-.476-1.243.667.667 0 0 0-.383.86.664.664 0 0 0 .859.383ZM88.054 33.233a.667.667 0 0 0 .383-.86.664.664 0 0 0-.86-.382.667.667 0 0 0 .477 1.242Z" fill="#0F1928"/><path d="M79.147 35.886c.084.041.328.072.734.092l-.935-4.49 5.04-1.57a4.36 4.36 0 0 0 2.903-.194 4.45 4.45 0 0 0 2.66-3.412 4.47 4.47 0 0 0-1.483-4.067 4.446 4.446 0 0 0-4.227-.889 4.447 4.447 0 0 0-2.988 3.127 3.949 3.949 0 0 0-4.1 1.077 3.972 3.972 0 0 0-.778 4.177c-.49.157-2.061 1.849-.924 5.823.067.236.149.467.245.693.872-.472 2.326-1.127 3.853-.367Z" fill="#54CA77"/><path fill-rule="evenodd" clip-rule="evenodd" d="M79.47 35.671a3.333 3.333 0 0 0-3.4-.916 3.334 3.334 0 0 0-2.325 2.65 3.35 3.35 0 0 0 1.341 3.263 3.329 3.329 0 0 0 3.513.239c.218-.115.42-.256.605-.42" fill="#fff"/><path d="M77.03 41.668a3.693 3.693 0 0 1-2.344-.84 3.66 3.66 0 0 1-.91-1.119 3.721 3.721 0 0 1 1.121-4.74 3.697 3.697 0 0 1 4.838.452.365.365 0 0 1-.53.5 2.972 2.972 0 0 0-5.044 1.374 2.99 2.99 0 0 0 .258 2.072 2.964 2.964 0 0 0 1.753 1.443 2.95 2.95 0 0 0 2.789-.594.364.364 0 1 1 .487.542 3.696 3.696 0 0 1-2.418.91Z" fill="#0F1928"/><path d="M76.061 39.114a.363.363 0 0 1-.373-.355.366.366 0 0 1 .354-.375l1.307-.07-1.705-1.34a.365.365 0 0 1 .45-.574l2.467 1.94a.365.365 0 0 1-.206.651l-2.275.122h-.019ZM86.413 38.094c-.326 0-.65-.058-.957-.17a.363.363 0 0 1-.217-.468.365.365 0 0 1 .466-.218 2.034 2.034 0 0 0 2.484-.919.365.365 0 1 1 .634.358 2.767 2.767 0 0 1-2.41 1.417ZM83.844 55.468a7.584 7.584 0 0 1-5.182-2.05 7.621 7.621 0 0 1-2.394-5.041.366.366 0 0 1 .338-.39.363.363 0 0 1 .389.34 6.903 6.903 0 0 0 2.78 5.07 6.866 6.866 0 0 0 5.654 1.16 6.868 6.868 0 0 0 4.542-3.57 6.902 6.902 0 0 0 .227-5.782.366.366 0 0 1 .197-.477.363.363 0 0 1 .475.197 7.634 7.634 0 0 1-.698 7.157 7.605 7.605 0 0 1-2.74 2.488 7.583 7.583 0 0 1-3.588.897ZM73.737 74.78a.364.364 0 0 1-.364-.365V62.25a.366.366 0 0 1 .364-.365.364.364 0 0 1 .364.365v12.165a.365.365 0 0 1-.364.365Z" fill="#0F1928"/></g><path d="M212.122 138.335H1.244c-.221 0-.39-.182-.39-.421 0-.238.169-.421.39-.421h210.878c.222 0 .391.183.391.421 0 .239-.169.421-.391.421Z" fill="#0F1928"/><path d="M173.844 87.84c.181.166.181.436 0 .587l-4.682 4.681c-.151.181-.42.181-.587 0l-2.411-2.412a.408.408 0 0 1 0-.587.428.428 0 0 1 .602 0l2.11 2.113 4.381-4.382a.409.409 0 0 1 .587 0Z" fill="#54CA77"/><rect x="142.959" y=".5" width="34.257" height="34.257" rx="6.228" fill="#F3F3F4"/><g clip-path="url(#e)"><path d="M164.052 15.876a.65.65 0 0 0-.657.632v1.12a3.508 3.508 0 0 1-3.854 3.487c-1.817-.178-3.153-1.815-3.153-3.646v-.96a.651.651 0 0 0-.657-.633.651.651 0 0 0-.657.632v.88c0 2.453 1.752 4.642 4.161 4.973v.96h-1.339a.645.645 0 0 0-.632.632c0 .34.293.682.632.682h3.942a.661.661 0 0 0 .681-.657.655.655 0 0 0-.657-.657h-1.314v-.925a4.82 4.82 0 0 0 4.161-4.768v-1.12a.65.65 0 0 0-.657-.632Zm-4.16 4.38a2.628 2.628 0 0 0 2.627-2.628v-4.38a2.644 2.644 0 0 0-2.627-2.627 2.628 2.628 0 0 0-2.628 2.627v4.38a2.628 2.628 0 0 0 2.628 2.627Zm-1.314-7.008a1.314 1.314 0 0 1 2.627 0v4.38a1.314 1.314 0 1 1-2.627 0v-4.38Z" fill="#54CA77"/></g><defs><clipPath id="a"><path fill="#fff" transform="translate(64.55 57.738)" d="M0 0h46.54v80.069H0z"/></clipPath><clipPath id="b"><path fill="#fff" transform="translate(63.406 119.981)" d="M0 0h6.739v18.115H0z"/></clipPath><clipPath id="c"><path fill="#fff" transform="translate(51.95 126.243)" d="M0 0h9.21v11.406H0z"/></clipPath><clipPath id="d"><path fill="#fff" transform="translate(1.172 21.164)" d="M0 0h133.805v117.239H0z"/></clipPath><clipPath id="e"><path fill="#fff" transform="translate(154.637 10.621)" d="M0 0h10.511v14.014H0z"/></clipPath></defs></svg>